<svg xmlns="http://www.w3.org/2000/svg" width="512" height="512" viewBox="0 0 512 512">
  <defs>
    <style>
      .feet {
        fill: #fff;
        stroke: #a2a2a2;
        stroke-linejoin: round;
        stroke-width: 5px;
        fill-rule: evenodd;
      }
    </style>
  </defs>
  <path class="feet" d="M130.863,0c13.931-.109,25.952.27,35.169,4.907,37.828,19.033,70.4,98.12,60.524,161.943-4.183,27.042-13.086,76.064-13.086,76.064s-79.994,23.884-93.24,25.354C85.106,221.347,45.1,91.218,90.786,23.719,100.652,9.141,113.7,7.889,130.863,0Zm233.1,119.412c124.335-1.9,71.052,220.636,26.99,268.269-26.1-7.624-70.463-11.309-91.6-24.537-24.747-77.491-18.037-196.585,39.259-234.735C346.227,123.335,354.36,123.251,363.962,119.412ZM213.47,265s8.285,11.085,11.45,17.176c17.606,33.87,26.165,93.667-16.358,108.779-51.492,18.3-79.279-57.033-80.153-99.783Zm82.607,119.412,87.514,25.355c0.021,44.69-29.918,119.324-81.789,99.782-30.752-11.585-36.738-56.865-23.719-91.6Z"/>
</svg>
