<?xml version="1.0" standalone="no"?>
<!DOCTYPE svg PUBLIC "-//W3C//DTD SVG 1.1//EN" "http://www.w3.org/Graphics/SVG/1.1/DTD/svg11.dtd" >
<svg xmlns="http://www.w3.org/2000/svg">
<metadata>Generated by IcoMoon</metadata>
<defs>
<font id="mp-font" horiz-adv-x="1024">
<font-face units-per-em="1024" ascent="960" descent="-64" />
<missing-glyph horiz-adv-x="1024" />
<glyph unicode="&#x20;" horiz-adv-x="512" d="" />
<glyph unicode="&#xe900;" horiz-adv-x="1867" d="M120.471 960h1626.353c66.534 0 120.471-53.937 120.471-120.471v-783.059c0-66.534-53.937-120.471-120.471-120.471h-1626.353c-66.534 0-120.471 53.937-120.471 120.471v783.059c0 66.534 53.937 120.471 120.471 120.471z" />
<glyph unicode="&#xe901;" horiz-adv-x="1867" d="M757.294 237.176h-70.588v193.824h-198.235v-193.824h-70.294v430h70.294v-175.882h198.235v175.882h70.588v-430zM870.529 237.176v430h70.294v-369.706h182.059v-60.294h-252.353zM1267.294 467.176h48.824c32.745 0 56.471 6.078 71.176 18.235s22.059 30.196 22.059 54.118c0 24.314-7.941 41.765-23.824 52.353s-39.804 15.882-71.765 15.882h-46.471v-140.588zM1267.294 408.941v-171.765h-70.294v430h121.471c55.49 0 96.568-10.392 123.235-31.176s40-52.157 40-94.118c0-53.53-27.843-91.667-83.529-114.412l121.471-190.294h-80l-102.941 171.765h-69.412z" />
<glyph unicode="&#xe902;" glyph-name="pointer-right" horiz-adv-x="512" d="M292.196 430.348l-248.322 354.746c-27.026 38.609-17.637 91.817 20.972 118.843s91.817 17.637 118.843-20.972l284.444-406.349c21.473-30.676 20.439-71.768-2.55-101.325l-284.444-365.714c-28.934-37.201-82.547-43.902-119.748-14.968s-43.902 82.547-14.968 119.748l245.772 315.993z" />
<glyph unicode="&#xe903;" glyph-name="arrow-down" d="M864.006 726.847c36.595 37.801 94.712 37.801 131.293 0.016 18.484-19.112 28.7-45.176 28.7-72.371s-10.217-53.258-28.686-72.355l-386.577-399.72c-53.665-55.489-139.808-55.489-193.473 0l-386.577 399.72c-38.248 39.548-38.248 105.162 0 144.71 36.595 37.801 94.712 37.801 131.293 0.016l352.021-363.989 352.007 363.973z" />
<glyph unicode="&#xe904;" glyph-name="arrow-up" d="M159.993 169.153c-36.595-37.801-94.712-37.801-131.293-0.016-18.484 19.112-28.7 45.176-28.7 72.371s10.217 53.258 28.686 72.355l386.577 399.72c53.665 55.489 139.808 55.489 193.474 0l386.577-399.72c38.248-39.548 38.248-105.162 0-144.71-36.595-37.801-94.712-37.801-131.293-0.016l-352.021 363.989-352.007-363.973z" />
<glyph unicode="&#xe905;" glyph-name="eye-hide" d="M433.8 202.926l423.781 420.733c12.425-8.725 24.611-17.729 36.551-26.948 38.741-29.896 76.84-62.632 108.865-99.416 5.602-5.429 9.256-12.482 10.491-20.002 0-0.039 0.010-0.088 0.020-0.126 0.060-0.331 0.1-0.671 0.141-1.012 0.040-0.282 0.090-0.574 0.12-0.866 0.020-0.195 0.030-0.399 0.050-0.603 0.030-0.399 0.070-0.788 0.090-1.197 0.030-0.603 0.070-1.197 0.070-1.81s-0.020-1.216-0.050-1.819c-0.020-0.409-0.060-0.798-0.090-1.187-0.020-0.204-0.030-0.399-0.050-0.603-0.030-0.292-0.080-0.584-0.12-0.866-0.040-0.34-0.080-0.671-0.141-1.012-0.010-0.039-0.020-0.088-0.020-0.126-1.235-7.53-4.889-14.573-10.491-20.012-10.521-12.093-22.036-23.446-33.611-34.585-62.544-60.152-134.325-113.795-212.922-152.719-50.226-24.866-103.876-44.926-159.533-54.577-54.437-9.432-108.929-10.051-163.152-1.247zM160.419 323.621c-10.513 7.493-20.852 15.182-31.013 23.027-38.741 29.906-76.84 62.632-108.865 99.416-14.015 16.091-14.015 35.149 0 51.24 10.521 12.093 22.036 23.456 33.611 34.585 62.544 60.152 134.325 113.805 212.922 152.719 50.216 24.866 103.866 44.926 159.533 54.577 51.686 8.956 103.415 9.966 154.921 2.516l-421.109-418.080zM810.746 841.145l-731.813-745.365 65.825-67.044 764.725 778.887-65.825 67.044z" />
<glyph unicode="&#xe906;" glyph-name="eye-show" d="M1013.911 473.42c-0.020 0.409-0.060 0.798-0.090 1.197-0.020 0.204-0.030 0.409-0.050 0.603-0.030 0.292-0.080 0.584-0.12 0.866-0.040 0.341-0.080 0.681-0.141 1.012-0.010 0.039-0.020 0.088-0.020 0.127-1.235 7.522-4.889 14.577-10.491 20.007-32.025 36.793-70.124 69.538-108.865 99.441-83.436 64.439-178.859 118.348-284.19 140.048-60.878 12.534-122.137 13.069-183.336 2.462-55.667-9.653-109.317-29.718-159.533-54.591-78.597-38.924-150.377-92.59-212.922-152.757-11.575-11.132-23.090-22.498-33.611-34.594-14.015-16.095-14.015-35.158 0-51.253 32.025-36.793 70.124-69.528 108.865-99.441 83.446-64.439 178.869-118.339 284.2-140.039 60.878-12.543 122.147-13.078 183.346-2.472 55.657 9.653 109.307 29.718 159.533 54.591 78.597 38.934 150.377 92.59 212.922 152.757 11.575 11.142 23.090 22.498 33.611 34.594 5.602 5.44 9.256 12.485 10.491 20.017 0 0.039 0.010 0.088 0.020 0.127 0.060 0.341 0.1 0.671 0.141 1.012 0.040 0.282 0.090 0.574 0.12 0.866 0.020 0.204 0.030 0.399 0.050 0.603 0.030 0.389 0.070 0.778 0.090 1.187 0.030 0.603 0.050 1.207 0.050 1.82s-0.040 1.207-0.070 1.81v0zM512 284.376c-106.687 0-193.165 83.823-193.165 187.234 0 103.402 86.478 187.234 193.165 187.234s193.165-83.823 193.165-187.234c0-103.411-86.478-187.234-193.165-187.234v0zM575.94 471.61c0-34.229-28.627-61.977-63.94-61.977s-63.94 27.748-63.94 61.977c0 34.229 28.627 61.977 63.94 61.977s63.94-27.748 63.94-61.977z" />
<glyph unicode="&#xe907;" glyph-name="more-vert" d="M384 832c0 70.692 57.308 128 128 128s128-57.308 128-128c0-70.692-57.308-128-128-128s-128 57.308-128 128zM384 448c0 70.692 57.308 128 128 128s128-57.308 128-128c0-70.692-57.308-128-128-128s-128 57.308-128 128zM384 64c0 70.692 57.308 128 128 128s128-57.308 128-128c0-70.692-57.308-128-128-128s-128 57.308-128 128z" />
<glyph unicode="&#xe908;" glyph-name="question" d="M512-64c-282.77 0-512 229.23-512 512s229.23 512 512 512c282.77 0 512-229.23 512-512s-229.23-512-512-512zM512 72.533c56.554 0 102.4 45.846 102.4 102.4s-45.846 102.4-102.4 102.4c-56.554 0-102.4-45.846-102.4-102.4s45.846-102.4 102.4-102.4zM495.269 345.6h40.779c28.285 0 52.697 18.519 52.697 45.011 0 14.159 2.656 24.806 7.586 32.347 5.691 8.703 21.577 23.588 46.903 43.33 40.587 30.554 68.662 58.589 84.076 84.584 15.79 26.629 23.623 58.005 23.623 93.738 0 54.074-19.285 98.242-57.386 130.965-37.339 32.069-86.999 47.892-148.343 47.892-14.966 0-31.402-1.747-49.105-5.012-20.605-3.801-42.379-9.548-64.648-16.721-24.985-8.048-45.503-16.099-57.874-21.549-27.904-10.908-40.172-43.238-26.856-71.44l14.75-31.237c12.381-26.22 43.29-39.453 69.249-29.050 8.785 3.845 22.705 9.395 39.146 14.94 10.399 3.507 20.456 6.516 29.9 8.875 14.365 3.588 26.719 5.513 36.217 5.513 20.674 0 35.912-4.075 46.010-11.614 8.619-6.435 12.707-15.322 12.707-28.63 0-13.235-3.543-24.94-10.779-35.641-7.951-11.758-26.078-28.589-53.952-49.574-32.43-25.086-55.008-49.043-67.863-72.507-13.065-23.848-19.536-51.627-19.536-83.025 0-27.543 24.539-51.195 52.697-51.195z" />
<glyph unicode="&#xe909;" glyph-name="check" d="M267.71 484.424c-33.034 33.713-86.497 33.811-119.281 0.353l-38.363-39.151c-32.843-33.518-33.136-87.563 0.080-121.461l189.745-193.645c32.887-33.563 87.642-33.692 120.92-1.617l493.819 475.97c33.895 32.67 34.714 86.361 1.063 120.703l-36.532 37.283c-33.308 33.992-87.551 35.6-121.994 2.793l-395.7-376.911-93.756 95.683z" />
<glyph unicode="&#xe90a;" glyph-name="start-location" d="M341.333 391.111v-58.802c-134.539-22.64-227.556-71.218-227.556-127.492 0-77.909 178.29-141.067 398.222-141.067s398.222 63.157 398.222 141.067c0 56.274-93.017 104.852-227.556 127.492v58.802c198.859-32.153 341.333-118.912 341.333-220.892 0-129.356-229.23-234.219-512-234.219s-512 104.864-512 234.219c0 101.98 142.475 188.738 341.333 220.892zM986.871 960c4.076 0 8.018-1.46 11.113-4.114 7.154-6.137 7.977-16.912 1.84-24.066l-142.181-165.728 142.181-165.726c2.654-3.093 4.114-7.036 4.114-11.113 0-9.426-7.641-17.067-17.067-17.067h-437.161v-358.505c0-9.426-7.641-17.067-17.067-17.067h-39.659c-9.426 0-17.067 7.641-17.067 17.067v729.252c0 9.426 7.641 17.067 17.067 17.067h493.886z" />
<glyph unicode="&#xe90b;" glyph-name="360" d="M382.272 184.704l-44.128 34.4c-18.816 14.656-22.176 41.824-7.52 60.64s41.824 22.176 60.64 7.52l153.12-119.328c22.24-17.312 22.176-50.944-0.096-68.224l-153.12-118.656c-18.848-14.624-45.984-11.168-60.608 7.68s-11.168 45.984 7.68 60.608l59.424 46.048c-230.080 27.328-391.648 134.176-391.552 273.76 4.576 59.872 35.36 114.688 84.128 149.76 19.36 13.92 46.368 9.504 60.288-9.856s9.536-46.368-9.856-60.288c-27.808-20-45.792-51.424-48.32-82.912 0-80.096 119.232-155.168 289.888-181.152zM875.84 509.056c13.92 19.36 40.928 23.776 60.288 9.856 49.056-35.296 79.584-90.272 84.256-153.056 0-130.944-153.728-238.56-368.992-266.88-23.648-3.104-45.344 13.536-48.448 37.216s13.536 45.344 37.216 48.448c169.76 22.336 293.856 101.6 293.984 177.92-2.624 34.464-20.352 66.016-48.448 86.208-19.36 13.92-23.776 40.928-9.856 60.288zM331.84 760.672c-8.192-8.864-17.824-16.16-28.448-21.664 13.184-4.672 25.568-11.84 36.48-21.344 15.552-15.904 23.808-37.44 22.816-58.496 2.816-32.768-11.232-64.704-37.824-85.376-30.72-20.416-67.392-30.176-103.52-27.808-34.112-1.024-68.032 5.472-99.296 18.976l-4.96 7.488v48.768l11.904 7.328c14.656-7.2 30.144-12.64 46.272-16.352 14.56-3.68 29.536-5.632 45.056-5.856 19.168-1.312 38.272 3.456 53.792 13.12 11.648 9.248 17.952 23.616 16.768 39.52 0.864 13.248-6.016 25.792-17.216 32.064-20 9.44-42.144 13.632-64.832 12.064h-31.456l-8.256 8.16v44.032l8.256 8.16h30.112c50.656 0 73.824 15.872 73.856 48.544 0.672 10.336-3.616 20.384-10.912 26.688-10.752 7.552-23.84 11.104-37.632 10.016-11.712 0-23.36-1.728-34.272-4.96-14.336-4.864-27.936-11.584-40.448-20.032l-11.424 2.080-26.688 37.92 1.888 11.264c33.12 24.16 73.344 36.864 113.824 36.128 30.4 1.888 60.576-6.208 86.304-23.392 21.088-16.288 32.768-41.792 31.232-68.224 0.544-21.472-7.008-42.4-21.312-58.88zM563.68 909.824c15.040 0.16 30.080-1.248 44.832-4.224l6.624-8v-46.048l-10.496-7.872c-12.608 3.52-25.632 5.216-39.456 5.152-28.192 2.144-55.968-7.616-75.584-25.952-14.432-18.624-23.552-40.544-26.656-63.52 5.344 4.768 11.328 8.864 17.824 12.16 15.648 7.68 32.928 11.456 49.728 11.008 29.632 1.632 58.464-9.696 79.264-31.328 19.616-22.88 29.6-52.32 27.936-81.408 1.728-32.992-9.856-65.344-32.512-90.208-23.36-22.976-55.424-35.136-87.712-33.536-24.128-0.48-47.84 6.080-68.384 19.008-20.096 13.344-35.68 32.32-44.896 54.816-9.664 26.784-13.792 55.2-12.096 83.584 0.064 136.32 57.856 206.368 171.648 206.368zM520 607.072h0.448c14.112-0.768 27.808 4.928 36.64 14.944 9.824 13.344 14.592 29.664 13.504 47.328 1.248 14.976-3.264 29.856-12.224 41.216-9.312 10.016-22.72 15.296-37.216 14.304-10.016 0.224-19.936-2.016-29.088-6.656-8.352-3.936-15.456-9.984-20.736-17.664-4.576-6.432-7.168-14.048-7.392-21.984-0.608-17.888 5.088-35.424 16.48-50.144 8.672-13.28 23.584-21.312 39.584-21.312zM882.56 593.056c-20.736-31.104-56.608-48.992-93.376-47.008-37.536-1.728-73.184 16.48-93.792 48.224-22.816 40.832-33.376 87.264-30.432 132.736-3.392 47.392 6.912 94.752 30.080 137.152 20.736 31.104 56.608 48.992 93.344 47.008 37.952 1.824 73.952-16.704 94.528-48.96 22.496-40.96 32.832-87.424 29.76-133.952 3.104-46.752-7.232-93.408-30.112-135.232zM736.16 728.704v-0.928c-1.984-32.48 2.72-65.024 13.76-95.264 6.432-15.456 21.664-25.568 38.528-25.568s32.096 10.080 38.4 25.248c11.168 30.368 15.904 62.656 13.888 95.904 1.952 32.256-2.784 64.544-13.76 94.592-6.432 15.456-21.664 25.568-38.528 25.568s-32.096-10.080-38.4-25.184c-10.912-30.208-15.648-62.272-13.888-94.336z" />
<glyph unicode="&#xe90c;" glyph-name="mattertag" d="M105.12 448c0-223.872 183.008-406.88 406.88-406.88 224.192 0 406.88 182.4 406.88 406.88s-182.688 406.88-406.88 406.88c-223.872 0-406.88-183.008-406.88-406.88zM512 921.6c261.44 0 473.6-212.16 473.6-473.6s-212.16-473.6-473.6-473.6c-261.44 0-473.6 212.16-473.6 473.6s212.16 473.6 473.6 473.6zM512 727.872c-154.656 0-279.872-125.216-279.872-279.872s125.216-279.872 279.872-279.872c154.336 0 279.872 125.792 279.872 279.872s-125.536 279.872-279.872 279.872zM512 772.256c178.976 0 324.256-145.248 324.256-324.256s-145.248-324.256-324.256-324.256c-178.976 0-324.256 145.248-324.256 324.256s145.248 324.256 324.256 324.256z" />
<glyph unicode="&#xe90d;" glyph-name="blocked" d="M874.048 810.048c-96.704 96.704-225.28 149.952-362.048 149.952s-265.344-53.248-362.048-149.952c-96.704-96.704-149.952-225.28-149.952-362.048s53.248-265.344 149.952-362.048c96.704-96.704 225.28-149.952 362.048-149.952s265.344 53.248 362.048 149.952c96.704 96.704 149.952 225.28 149.952 362.048s-53.248 265.344-149.952 362.048zM896 448c0-82.816-26.368-159.584-71.104-222.368l-535.264 535.264c62.784 44.768 139.552 71.104 222.368 71.104 211.744 0 384-172.256 384-384zM128 448c0 82.816 26.368 159.584 71.104 222.368l535.264-535.264c-62.784-44.768-139.552-71.104-222.368-71.104-211.744 0-384 172.256-384 384z" />
<glyph unicode="&#xe90e;" glyph-name="dpad-down" d="M796.096 645.92l-284.096-283.488-284.096 283.488c-28.512 28.448-74.688 28.448-103.2-0.064v0c-28.48-28.48-28.48-74.656 0-103.136l335.584-335.584c28.576-28.576 74.88-28.576 103.424 0l335.584 335.584c28.48 28.48 28.48 74.656 0 103.136v0c-28.48 28.48-74.656 28.512-103.2 0.064z" />
<glyph unicode="&#xe90f;" glyph-name="dpad-left" d="M709.856 835.296v0c-28.48 28.48-74.656 28.48-103.136 0l-335.584-335.584c-28.576-28.576-28.576-74.88 0-103.424l335.584-335.584c28.48-28.48 74.656-28.48 103.136 0v0c28.48 28.48 28.512 74.656 0.064 103.2l-283.488 284.096 283.488 284.096c28.448 28.512 28.448 74.688-0.064 103.2z" />
<glyph unicode="&#xe910;" glyph-name="dpad-right" d="M314.144 835.296v0c-28.48-28.48-28.512-74.656-0.064-103.2l283.488-284.096-283.488-284.096c-28.448-28.512-28.448-74.688 0.064-103.2v0c28.48-28.48 74.656-28.48 103.136 0l335.584 335.584c28.576 28.576 28.576 74.88 0 103.424l-335.584 335.584c-28.48 28.48-74.656 28.48-103.136 0z" />
<glyph unicode="&#xe911;" glyph-name="dpad-up" d="M460.288 688.864l-335.584-335.584c-28.48-28.48-28.48-74.656 0-103.136v0c28.48-28.48 74.656-28.512 103.2-0.064l284.096 283.488 284.096-283.488c28.512-28.448 74.688-28.448 103.2 0.064v0c28.48 28.48 28.48 74.656 0 103.136l-335.584 335.584c-28.576 28.576-74.88 28.576-103.424 0z" />
<glyph unicode="&#xe912;" glyph-name="close" d="M972.448 908.448v0c-28.48 28.48-74.656 28.48-103.136 0l-357.312-357.312-357.312 357.312c-28.48 28.48-74.656 28.48-103.136 0v0c-28.48-28.48-28.48-74.656 0-103.136l357.312-357.312-357.312-357.312c-28.48-28.48-28.48-74.656 0-103.136v0c28.48-28.48 74.656-28.48 103.136 0l357.312 357.312 357.312-357.312c28.48-28.48 74.656-28.48 103.136 0v0c28.48 28.48 28.48 74.656 0 103.136l-357.312 357.312 357.312 357.312c28.48 28.48 28.48 74.656 0 103.136z" />
<glyph unicode="&#xe913;" glyph-name="feedback" d="M901.12 934.4h-778.24c-53.504 0-97.28-43.776-97.28-97.28v-875.52l194.56 194.56h680.96c53.504 0 97.28 43.776 97.28 97.28v583.68c0 53.504-43.776 97.28-97.28 97.28v0zM220.128 253.6l-97.248-97.248v680.768h778.048v-583.52h-680.768z" />
<glyph unicode="&#xe914;" glyph-name="floor-controls-all" d="M810.080 290.144l65.12 36.64 105.216-56.416c15.456-10.144 15.456-34.368-0.608-44.864l-445.376-251.328c-12.576-8.256-29.248-8.256-41.216-0.352l-446.592 252.064c-15.456 10.144-15.456 34.368 0.64 44.864l19.744 11.072 78.72 45.088 64.16-36.448-16.192-9.312-57.536-32.608c138.304-78.688 141.344-80.416 365.152-207.776 5.504-3.584 12.96-3.584 19.072 0.384 225.152 126.56 228.608 128.48 367.552 206.592 0.192 0.096-25.76 14.24-77.824 42.4zM810.080 499.36l65.12 36.64 105.216-56.416c15.456-10.144 15.456-34.368-0.608-44.864l-445.376-251.328c-12.576-8.256-29.248-8.256-41.216-0.352l-446.592 252.064c-15.456 10.144-15.456 34.368 0.64 44.864l19.744 11.072 78.72 45.088 64.16-36.448-16.192-9.312-57.536-32.608c138.304-78.688 141.344-80.416 365.152-207.776 5.504-3.584 12.96-3.584 19.072 0.384 225.152 126.56 228.608 128.48 367.552 206.592 0.192 0.096-25.76 14.24-77.824 42.4zM43.616 650.24c-15.456 10.144-15.456 34.368 0.608 44.864l445.376 251.328c12.576 8.256 29.248 8.256 41.216 0.352l446.592-252.064c15.456-10.144 15.456-34.368-0.608-44.864l-445.376-251.328c-12.48-8.192-28.96-8.256-41.504-0.192l-446.304 251.904zM500.608 465.28c6.144-4 13.6-4 19.808 0.032l368.832 202.784c1.12 0.704 1.12 0.704 2.144 1.312 1.344 0.768 1.344 0.768 2.432 1.376 2.112 1.216 2.144 1.248 2.144 1.44s-0.288 0.608-2.944 2.304c-1.696 1.056-1.696 1.056-3.072 1.952l-370.272 203.232c-5.504 3.584-12.96 3.584-19.104-0.416l-364.672-202.4c-3.392-2.016-3.392-2.016-4.928-2.912-2.464-1.44-2.56-1.568-2.56-1.376 0-0.064 0.16-0.256 2.336-1.536 1.664-0.928 1.664-0.928 3.776-2.144 0.448-0.256 122.464-68.16 366.048-203.648z" />
<glyph unicode="&#xe915;" glyph-name="floor-controls" d="M810.080 375.488l65.12 36.64 105.216-56.416c15.456-10.144 15.456-34.368-0.608-44.864l-445.376-251.328c-12.576-8.256-29.248-8.256-41.216-0.352l-446.592 252.064c-15.456 10.144-15.456 34.368 0.64 44.864l19.744 11.072 78.72 45.088 64.16-36.448-16.192-9.312-57.536-32.608c138.304-78.688 141.344-80.416 365.152-207.776 5.504-3.584 12.96-3.584 19.072 0.384 225.152 126.56 228.608 128.48 367.552 206.592 0.192 0.096-25.76 14.24-77.824 42.4zM810.080 584.672l65.12 36.64 105.216-56.416c15.456-10.144 15.456-34.368-0.608-44.864l-445.376-251.328c-12.576-8.256-29.248-8.256-41.216-0.352l-446.592 252.064c-15.456 10.144-15.456 34.368 0.64 44.864l19.744 11.072 78.72 45.088 64.16-36.448-16.192-9.312-57.536-32.608c138.304-78.688 141.344-80.416 365.152-207.776 5.504-3.584 12.96-3.584 19.072 0.384 225.152 126.56 228.608 128.48 367.552 206.592 0.192 0.096-25.76 14.24-77.824 42.4zM747.232 836.736l64.736 36.416 147.008-83.392 21.408-11.52c15.456-10.144 15.456-34.368-0.608-44.864l-445.376-251.328c-12.576-8.256-29.248-8.256-41.216-0.352l-446.592 252.064c-15.456 10.144-15.456 34.368 0.64 44.864l19.68 11.008 142.816 83.584 64.032-36.384-15.936-9.344-121.76-71.072c138.368-78.72 141.344-80.416 365.216-207.808 5.504-3.584 12.96-3.584 19.072 0.384 225.248 126.624 228.608 128.48 367.776 206.72 0.192 0.096-46.784 27.104-140.864 81.024z" />
<glyph unicode="&#xe916;" glyph-name="panorama" d="M395.968 647.552l-62.208-256.992-121.824-388.704c-19.2-61.344 79.52-88.192 98.752-26.88l111.328 355.136 155.904-148.288 40.768-206.592c5.12-26.016 31.936-43.264 59.872-38.464s46.4 29.76 41.28 55.808l-43.488 220.32c-1.856 9.376-6.656 18.016-13.792 24.832l-152.064 145.024 46.144 195.776 32.64-67.776c4.224-8.768 12.48-15.296 22.464-17.792l147.488-36.576c18.304-4.544 37.056 5.6 41.952 22.656s-6.016 34.528-24.32 39.072l-131.936 33.088-72.288 150.112c-4.352 9.056-12.704 15.296-22.272 17.728l-0.096 0.256-2.432 0.288c-1.504 0.288-3.104 0.448-4.64 0.512l-101.632 11.712c-4.384 1.376-9.056 1.92-13.728 1.6l-1.248 0.128-0.16-0.256c-4.192-0.48-8.352-1.696-12.256-3.68l-145.76-74.208c-8.288-4.224-14.336-11.424-16.736-19.936l-40.544-143.968c-4.8-17.056 6.144-34.528 24.48-39.008s37.056 5.728 41.856 22.816l37.44 130.976 81.088 41.28zM519.648 768.32c56.8 0 102.88 42.912 102.88 95.84s-46.048 95.84-102.88 95.84c-56.8 0-102.88-42.912-102.88-95.84s46.048-95.84 102.88-95.84v0z" />
<glyph unicode="&#xe917;" glyph-name="dollhouse" d="M987.424 663.168v0h8.8c0.032-0.096 0.032-0.192 0.032-0.224l-8.864 0.224zM292.576 288.768v-236.576l-225.824 121.632 1.824 243.808 224-128.832zM101.216 475.040l261.792 148.352v-157.92l-119.36-72.128-142.432 81.696zM262.432 642.368v75.168l66.080-36.864-66.080-38.304zM472.544 608.544l-42.752-23.36v84.864c0 2.080 0 5.312-0.992 8.448v1.344c0 12.16-6.816 23.104-17.376 28.352l-116.16 64.704 176.352 98.432v-255.168c0-2.528 0.256-5.088 0.896-7.616v0zM929.568 603.936v-221.664l-571.2-328.608v233.952l571.2 316.32zM536.832 606.048c0.896 2.656 1.568 5.696 1.568 9.12v256.128l133.312-74.72 225.472-135.072-236.32-130.144-124 74.656zM996.288 666.112c0 2.048-0.576 3.68-1.12 4.864-0.256 1.248-0.672 2.272-1.056 3.040-0.544 2.848-2.176 5.312-4.544 6.912l-1.696 2.24c-0.32 0.352-0.672 0.608-0.992 0.896-0.928 1.44-2.4 2.944-4.704 4.448l-277.152 164.64-183.296 103.072c-10.336 5.12-22.112 5.152-32.8-0.192l-275.936-153.792-2.528-1.856c-0.48-0.32-0.928-0.608-1.376-0.928l-3.904-2.624c-0.8-0.832-1.728-2.048-2.944-3.872l-0.992-0.992c0-0.032 0-0.032-0.032-0.096l-1.568-1.568v-0.448c-1.024-1.632-1.504-3.424-2.016-5.152l-0.928-3.264c-0.992-2.976-0.992-5.664-0.992-7.584v-168.192l-179.456-102.208c-9.888-5.664-16.256-16.736-16.256-28.32 0-3.904 1.056-7.392 1.952-9.664l-1.952-310.624c0-12.16 6.752-23.104 17.376-28.416l290.944-158.304c1.216-0.832 2.4-1.376 3.488-1.728l1.6-1.632 4-0.992c2.976-0.992 5.696-0.992 7.616-0.992 2.272 0 5.376 0 9.696 1.472l-0.096 0.256 4.512 1.696c1.024 0.352 2.080 0.672 4 1.696l637.536 367.040c10.432 5.216 16.64 15.84 16.64 28.544l-1.024 302.656z" />
<glyph unicode="&#xe918;" glyph-name="floorplan" horiz-adv-x="928" d="M425.248 897.12c0 15.2 12.192 26.624 28 26.624h439.104c15.488 0 28-12.128 28-26.624v-898.208c0-14.912-12.928-26.624-28-26.624h-828.096c-15.488 0-28 12.128-28 26.624v453.856c0 15.2 12.192 26.624 28 26.624h345.824c8.512 0 15.2 6.464 15.2 13.824v403.904zM838.848 34.144c8.512 0 15.2 6.464 15.2 13.824v367.488c0 4.32-6.72 9.024-15.2 9.024h-160.672c-15.488 0-28 12.128-28 26.624v9.408c0 14.912 12.928 26.624 28 26.624h161.696c8.512 0 15.2 6.464 15.2 13.824l-0.192 345.792c0 7.552-6.912 13.824-15.2 13.824h-332.448c-8.512 0-15.2-6.464-15.2-13.824l0.192-352.576v-51.104c0-14.912-12.928-26.624-28-26.624h-346.368c-8.512 0-15.2-6.464-15.2-13.824v-353.664c0-7.552 6.912-13.824 15.2-13.824h292.16c8.512 0 15.2 6.464 15.2 13.824v150.624c0 14.912 12.928 26.624 28 26.624h10.496c15.488 0 28-12.128 28-26.624v-151.584c0-9.184 4.352-13.824 12.352-13.824h334.752z" />
<glyph unicode="&#xe919;" glyph-name="fullscreen-exit" d="M372.672-38.4h-83.072v17.056l0.064 242.336c0.256 2.72-0.096 3.904-0.864 4.768-0.032 0.032-0.416 0.16-5.312-0.352h-257.696v83.104l305.568-0.032c12.864 0.96 23.936-2.432 31.616-11.040 6.432-7.2 9.952-15.424 9.664-24.352v-311.488zM332.064 587.36h-306.464v82.88l260.192-0.064c2.368-0.224 3.008 0 3.392 0.384 0.288 0.288 0.608 1.44 0.224 6.336v257.376h83.072v-17.056l-0.096-286.4c1.312-12.608-1.504-23.712-9.216-32.064-7.872-8.544-19.008-12.096-31.104-11.392zM651.52 630.72v303.68h83.008v-259.712c-0.064-3.232 0.288-4.256 0.16-4.16s0.96-0.192 5.024-0.032h258.656v-83.040l-299.808 0.032c-15.424-1.088-27.648 1.568-36.32 9.664-8.96 8.384-12.064 20.512-10.752 33.536zM689.44 308.576h308.768v-83.424l-261.44 0.032c-1.184 0.064-1.472-0.032-2.048-0.672-0.032-0.032-0.512-2.112 0-8.704v-254.144h-83.36v17.056l0.032 289.856c-0.608 12.032 2.688 22.464 10.528 30.016 7.52 7.264 17.408 10.528 27.552 9.984z" />
<glyph unicode="&#xe91a;" glyph-name="fullscreen" d="M25.824 308.64h83.072v-17.056l-0.064-242.336c-0.256-2.72 0.096-3.904 0.864-4.768 0.032-0.032 0.416-0.16 5.312 0.352h257.696v-83.104l-305.568 0.032c-12.864-0.96-23.936 2.432-31.616 11.040-6.432 7.2-9.952 15.424-9.664 24.352v311.488zM35.136 922.816c7.872 8.544 19.008 12.096 31.104 11.392h306.464v-82.88l-260.192 0.064c-2.368 0.224-3.008 0-3.392-0.384-0.288-0.288-0.608-1.44-0.224-6.336v-257.376h-83.072v17.056l0.096 286.4c-1.312 12.608 1.504 23.712 9.216 32.064zM998.176 890.944v-303.68h-83.008v259.712c0.064 3.232-0.288 4.256-0.16 4.16s-0.96 0.192-5.024 0.032h-258.656v83.040l299.808-0.032c15.424 1.088 27.648-1.568 36.32-9.664 8.96-8.384 12.064-20.512 10.752-33.536zM960.064-38.304h-308.768v83.424l261.44-0.032c1.184-0.064 1.472 0.032 2.048 0.672 0.032 0.032 0.512 2.112 0 8.704v254.144h83.36v-17.056l-0.032-289.856c0.608-12.032-2.688-22.464-10.528-30.016-7.52-7.264-17.408-10.528-27.552-9.984z" />
<glyph unicode="&#xe91b;" glyph-name="fullscreen2" horiz-adv-x="1568" d="M18.624 401.44v-465.44h465.44v122.080h-343.36v343.36h-122.080zM140.704 494.56v343.36h343.36v122.080h-465.44v-465.44h122.080zM1432.544 58.080h-343.36v-122.080h465.44v465.44h-122.080v-343.36zM1089.152 837.92v122.080h465.44v-465.44h-122.080v343.36h-343.36zM344.448 634.176h930.912v-418.912h-930.912v418.912z" />
<glyph unicode="&#xe91c;" glyph-name="hlr" d="M100.576 689.184h-100.576v69.664h137.152c17.664 0 32-14.336 32-32v-557.728c0-17.664-14.336-32-32-32h-137.152v68.576h100.576v483.456zM1024 205.728v-68.576h-137.152c-17.664 0-32 14.336-32 32v557.728c0 17.664 14.336 32 32 32h137.152v-68.576h-100.576v-484.576h100.576zM201.152 724.544c0 18.88 15.552 34.304 34.304 34.304h553.12c18.88 0 34.304-15.552 34.304-34.304v-553.12c0-18.88-15.52-34.304-34.304-34.304h-553.12c-18.88 0-34.304 15.52-34.304 34.304v553.12zM269.728 690.272v-484.576h484.576v484.576h-484.576z" />
<glyph unicode="&#xe91d;" glyph-name="link" d="M954.016 885.984l-4 4c-94.016 94.016-248 94.016-342.016 0l-220-218.016c-94.016-94.016-94.016-248 0-344l4-4c8-6.016 18.016-14.016 26.016-20l80 80c-10.016 4-18.016 12-26.016 20l-4 4c-52 50.016-52 134.016 0 184l218.016 218.016c50.016 52 134.016 52 184 0l4-4c52-50.016 52-134.016 0-184l-98.016-100c18.016-42.016 26.016-86.016 24-132l154.016 154.016c94.016 94.016 94.016 248 0 342.016zM632 572c-8 6.016-18.016 14.016-26.016 20l-80-80c10.016-4 18.016-12 26.016-20l4-4c52-50.016 52-134.016 0-184l-218.016-218.016c-50.016-52-134.016-52-184 0l-4 4c-52 50.016-52 134.016 0 184l98.016 100c-18.016 42.016-26.016 86.016-24 132l-154.016-154.016c-94.016-94.016-94.016-248 0-342.016l4-4c94.016-94.016 248-94.016 342.016 0l220 218.016c94.016 94.016 94.016 248 0 344z" />
<glyph unicode="&#xe91e;" glyph-name="email" d="M506.976 401.344l506.912 439.136v2.24c0 17.632-14.336 31.936-32.032 31.936h-949.824c-17.696 0-32.032-13.92-32.032-31.936v-2.24l506.976-439.136zM506.976 278.4l-506.976 439.168v-662.816c0-17.472 14.336-31.648 32.032-31.648h949.824c17.696 0 32.032 14.496 32.032 31.648v662.816l-506.912-439.168z" />
<glyph unicode="&#xe91f;" glyph-name="facebook" d="M576-64h-192v512h-128v176h128v104c0 144 38.016 232 208 232h142.016v-176h-88c-66.016 0-70.016-26.016-70.016-72v-88h158.016l-18.016-176h-140z" />
<glyph unicode="&#xe920;" glyph-name="linkedin" d="M234.144 849.6c0-60.992-45.088-110.4-119.264-110.4-69.792 0-114.88 49.408-114.88 110.4 0 62.464 46.528 110.4 117.792 110.4s114.912-47.936 116.352-110.4v0zM5.824-58.24v710.304h221.088v-710.304h-221.088zM334.944 424.832c0 88.608-2.88 162.656-5.792 226.592h191.968l10.208-98.784h4.352c29.088 46.496 100.352 114.784 219.616 114.784 145.44 0 254.528-97.344 254.528-306.496v-419.808h-221.088v393.664c0 91.52-32 153.952-112 153.952-61.088 0-97.408-42.112-113.408-82.784-5.824-14.528-7.296-34.848-7.296-55.2v-409.632h-221.088v483.712z" />
<glyph unicode="&#xe921;" glyph-name="pinterest" horiz-adv-x="800" d="M321.504 295.936c-26.4-138.24-58.656-270.752-154.144-339.968-29.472 208.928 43.296 365.824 77.088 532.416-57.6 96.864 6.912 291.808 128.448 243.744 149.536-59.104-129.504-360.096 57.792-397.728 195.584-39.232 275.424 338.88 154.144 461.856-175.2 177.568-510.016 4.032-468.864-250.176 10.016-62.176 74.304-80.992 25.696-166.784-112.128 24.832-145.6 113.152-141.312 230.944 6.912 192.736 173.408 327.712 340.384 346.368 211.168 23.616 409.376-77.408 436.736-275.808 30.816-223.936-95.296-466.464-321.152-449.024-61.184 4.736-86.88 35.008-134.88 64.16v0z" />
<glyph unicode="&#xe922;" glyph-name="twitter" d="M1024 765.984c-38.016-18.016-78.016-28-120-34.016 42.016 26.016 76 68 92 116-40-24-86.016-40-134.016-50.016-38.016 40-92 66.016-154.016 66.016-116 0-210.016-94.016-210.016-210.016 0-16 2.016-32 6.016-48-174.016 8-330.016 92-432 220-18.016-32-30.016-68-30.016-106.016 0-72 38.016-138.016 94.016-174.016-34.016 0-66.016 10.016-94.016 26.016 0-2.016 0-2.016 0-4 0-100 72-186.016 168-206.016-18.016-4-36-6.016-56-6.016-14.016 0-26.016 0-40 4 28-84 106.016-146.016 198.016-146.016-72-58.016-164-90.016-262.016-90.016-16 0-34.016 0-50.016 2.016 92-60 204-94.016 322.016-94.016 386.016 0 598.016 320 598.016 598.016 0 8 0 18.016 0 26.016 40 30.016 76 68 104 110.016z" />
<glyph unicode="&#xe923;" glyph-name="powered-by-matterport" horiz-adv-x="3904" d="M1672.576 488.64c13.632 0 25.632-2.080 35.968-6.304 10.272-4.224 18.912-10.208 25.984-17.888 7.008-7.744 12.128-16.832 15.456-27.296 3.392-10.464 4.992-21.952 4.992-34.496v-156.448c0-33.088-16.576-49.6-49.728-49.6h-147.712c-25.088 0-43.488 7.552-55.264 22.624-11.84 15.072-17.76 37.824-17.76 68.256 0 27.616 5.92 49.6 17.76 66.176 11.776 16.512 30.176 24.768 55.264 24.768h132.736v18.784c0 27.872-13.632 41.856-40.896 41.856h-143.264v49.536h166.496zM1582.432 328.832c-11.072 0-18.976-3.392-23.776-10.208s-7.168-17.152-7.168-31.136c0-13.92 2.4-24.32 7.168-31.136 4.8-6.752 12.704-10.144 23.776-10.144h91.232c11.104 0 16.608 5.536 16.608 16.512v66.112h-107.84zM1944.64 197.376c-16.576 0-31.52 1.568-44.832 4.736-13.216 3.040-24.576 8.384-33.984 16-9.44 7.488-16.608 17.28-21.568 29.376-4.992 12.16-7.456 27.232-7.456 45.248v147.040h-40.384v49.6h40.384v93.664h64.704v-93.664h83.52v-49.6h-83.52v-133.888c0-22.048 5.728-37.376 17.152-46.016s28.224-12.928 50.368-12.928h16v-49.6h-40.384zM2175.136 196.16c-16.608 0-31.552 1.568-44.832 4.672-13.248 3.136-24.608 8.448-33.984 16-9.408 7.552-16.64 17.344-21.568 29.44-4.992 12.16-7.456 27.232-7.456 45.184v147.104h-40.384v49.6h40.384v93.664h64.704v-93.664h83.552v-49.6h-83.552v-133.888c0-22.048 5.728-37.44 17.152-46.016 11.456-8.64 28.224-12.928 50.304-12.928h16.096v-49.6h-40.416zM2366.144 196.8c-23.296 0-41.92 3.232-56.128 9.6-14.112 6.368-25.088 15.808-32.896 28.224-7.776 12.352-13.088 27.616-15.776 45.696s-4.032 38.816-4.032 62.208c0 28.8 2.592 52.768 7.84 71.744s13.6 34.112 25.088 45.44c11.392 11.328 25.856 19.296 43.232 23.84 17.44 4.608 38.464 6.88 63.136 6.88 20.352 0 39.008-1.632 56.096-4.928 17.056-3.264 31.648-9.248 43.84-17.824 12.128-8.576 21.632-20.224 28.544-35.040 6.912-14.752 10.368-33.856 10.368-57.248 0-16.448-3.36-29.696-10.080-39.712s-18.208-15.072-34.56-15.072h-167.68c0-10.976 0.608-20.992 1.856-30.144s4.064-16.96 8.448-23.584c4.416-6.56 10.592-11.648 18.784-15.328s19.104-5.472 32.928-5.472h141.024v-49.28h-160.064zM2455.456 369.888c6.144 0 10.048 1.824 11.648 5.472 1.632 3.648 2.464 7.488 2.464 11.488 0 9.504-1.984 17.696-5.984 24.704-4.032 6.88-9.376 12.544-16.032 16.96-6.72 4.352-14.56 7.552-23.456 9.568s-18.048 3.040-27.488 3.040c-27.2 0-46.272-5.664-57.12-17.024-10.88-11.296-16.32-29.376-16.32-54.208h132.288zM2694.24 488c-39.488 0-69.056-8.576-88.736-25.664-19.744-17.088-29.632-45.248-29.632-84.512v-181.856h64.736v164.768c0 26.112 5.184 45.504 15.488 58.368 10.272 12.864 28.544 19.296 54.752 19.296h53.76v49.6h-70.368zM2958.688 488.192c23.552 0 43.072-3.52 58.336-10.464 15.296-7.008 27.552-16.832 36.832-29.504 9.184-12.672 15.616-27.936 19.328-45.696 3.648-17.824 5.536-37.76 5.536-59.808s-1.888-42.048-5.536-60.064c-3.712-18.016-10.144-33.408-19.328-46.272-9.28-12.864-21.504-22.816-36.832-29.76-15.264-7.008-34.784-10.464-58.336-10.464h-87.424v-93.664h-64.704v336.096c0 33.024 16.608 49.6 49.76 49.6h102.336zM2871.264 245.76h71.328c15.488 0 27.872 2.464 37.088 7.424 9.248 4.928 16.224 11.712 21.024 20.352s7.808 18.848 9.12 30.56c1.312 11.776 1.92 24.576 1.92 38.56 0 13.6-0.64 26.208-1.92 38.016s-4.288 21.952-9.12 30.56-11.808 15.392-21.024 20.16c-9.216 4.736-21.568 7.136-37.088 7.136h-54.752c-11.040 0-16.576-4.8-16.576-14.304v-178.496zM3273.728 491.2c25.728 0 48.192-2.208 67.392-6.752 19.168-4.48 35.104-12.352 47.776-23.52 12.672-11.232 22.24-26.176 28.576-44.928s9.472-42.432 9.472-70.912c0-28.928-3.136-52.704-9.472-71.488-6.336-18.72-15.872-33.856-28.576-45.184s-28.608-19.296-47.776-23.808c-19.2-4.544-41.664-6.752-67.392-6.752-25.76 0-48.192 2.208-67.424 6.752-19.168 4.544-35.104 12.48-47.776 23.808-12.704 11.36-22.208 26.464-28.576 45.184-6.336 18.784-9.504 42.528-9.504 71.488 0 28.48 3.168 52.128 9.504 70.912s15.84 33.728 28.576 44.928c12.64 11.168 28.608 19.040 47.776 23.52 19.232 4.544 41.664 6.752 67.424 6.752v0zM3186.24 345.12c0-17.696 1.504-32.768 4.608-45.184 3.040-12.48 7.968-22.688 14.656-30.56 6.72-8 15.68-13.792 26.912-17.408s24.96-5.408 41.28-5.408c16.32 0 30.112 1.824 41.248 5.408 11.264 3.584 20.224 9.408 26.944 17.408 6.688 7.872 11.616 18.080 14.72 30.56 3.040 12.416 4.608 27.488 4.608 45.184 0 17.664-1.568 32.64-4.608 44.928-3.104 12.224-8.032 22.24-14.72 30.016-6.72 7.808-15.648 13.472-26.944 17.088-11.136 3.584-24.928 5.408-41.248 5.408s-30.048-1.824-41.28-5.408c-11.232-3.584-20.192-9.248-26.912-17.088-6.688-7.744-11.616-17.792-14.656-30.016-3.104-12.288-4.608-27.296-4.608-44.928v0zM3851.072 196.16c-16.64 0-31.552 1.568-44.8 4.672-13.312 3.136-24.64 8.448-34.080 16-9.376 7.552-16.576 17.344-21.536 29.44-4.992 12.16-7.488 27.232-7.488 45.184v147.104h-40.384v49.6h40.384v93.664h64.736v-93.664h83.488v-49.6h-83.488v-133.888c0-22.048 5.696-37.44 17.12-46.016 11.456-8.64 28.288-12.928 50.336-12.928h16.032v-49.6h-40.32zM3590.336 488.192c-39.488 0-69.056-8.576-88.768-25.664s-29.6-45.248-29.6-84.544v-181.856h64.768v164.768c0 26.080 5.152 45.504 15.424 58.368 10.304 12.864 28.608 19.296 54.752 19.296h53.728v49.6h-70.304zM1434.112 436.384c-5.728 12.864-13.536 23.136-23.52 30.88-9.952 7.68-21.952 13.088-35.936 16.256-14.016 3.104-29.312 4.672-45.952 4.672h-303.648v-292.032h64.736v242.432h111.744v-242.432h64.704v242.432h50.336c22.144 0 37.856-5.664 47.296-17.088 9.376-11.424 14.112-28.096 14.112-50.176v-175.168h64.704v192.32c0 19.104-2.848 35.040-8.576 47.904zM322.432 393.568l212.064 121.632v162.048l-128.544 73.792c-7.264 4.192-19.264 4.192-26.592 0l-327.264-187.776c-7.328-4.16-13.312-14.432-13.312-22.88v-375.456c0-8.352 5.984-18.624 13.312-22.88l270.336-155.040v406.528zM733.184 563.296l-127.936 73.408v-162.048l-20.288-11.68-191.808-109.952v-401.664c4.64 0.096 9.248 1.088 12.768 3.072l327.264 187.68c7.328 4.256 13.312 14.528 13.312 22.88v375.456c0 8.416-5.984 18.688-13.312 22.88zM2059.808 936.832h63.264c13.376 0 24.64-1.504 33.792-4.48s16.512-7.136 22.048-12.512c5.568-5.344 9.568-11.616 12.032-18.816s3.712-15.008 3.712-23.456c0-8.448-1.248-16.256-3.712-23.456s-6.496-13.472-12.032-18.816c-5.568-5.344-12.896-9.504-22.048-12.512s-20.416-4.48-33.792-4.48h-48.448v-87.328h-14.816v205.824zM2127.392 832.224c17.28 0 30.144 3.872 38.56 11.584s12.64 18.976 12.64 33.792c0 14.816-4.224 26.080-12.64 33.792s-21.28 11.584-38.56 11.584h-52.768v-90.72h52.768zM2328.256 726.048c-14.816 0-28.448 2.784-40.896 8.32s-23.2 13.152-32.256 22.848c-9.056 9.664-16.16 21.024-21.28 34.112s-7.712 27.2-7.712 42.432c0 15.008 2.56 29.12 7.712 42.272s12.256 24.64 21.28 34.4c9.056 9.76 19.808 17.44 32.256 22.976s26.080 8.32 40.896 8.32c14.816 0 28.448-2.784 40.896-8.32s23.2-13.216 32.256-22.976c9.056-9.76 16.16-21.248 21.28-34.4s7.712-27.264 7.712-42.272c0-15.232-2.56-29.376-7.712-42.432s-12.256-24.416-21.28-34.112c-9.056-9.664-19.808-17.28-32.256-22.848s-26.080-8.32-40.896-8.32v0zM2328.256 739.936c12.96 0 24.8 2.432 35.488 7.264s19.808 11.52 27.296 20.064c7.52 8.544 13.312 18.528 17.44 29.92s6.176 23.616 6.176 36.576c0 12.96-2.048 25.216-6.176 36.736s-9.92 21.504-17.44 29.92c-7.52 8.448-16.608 15.136-27.296 20.064s-22.528 7.392-35.488 7.392c-12.96 0-24.8-2.464-35.488-7.392s-19.808-11.616-27.296-20.064c-7.52-8.448-13.312-18.4-17.44-29.92s-6.176-23.776-6.176-36.736c0-12.96 2.048-25.152 6.176-36.576s9.92-21.408 17.44-29.92c7.52-8.544 16.608-15.232 27.296-20.064s22.528-7.264 35.488-7.264v0zM2455.392 936.832h16.672l49.376-184.832 52.16 178.656h18.208l49.696-177.44 49.056 183.616h16.032l-57.696-205.824h-16.352l-50.304 177.76-52.768-177.76h-17.28l-56.768 205.824zM2742.4 936.832h123.424v-13.888h-108.608v-77.76h84.864v-13.888h-84.864v-86.4h116.64v-13.888h-131.456v205.824zM2914.272 936.832h62.016c13.376 0 24.672-1.44 33.952-4.32s16.768-6.944 22.528-12.192c5.76-5.248 9.92-11.424 12.512-18.528s3.872-14.848 3.872-23.296c0-13.376-3.456-25.248-10.336-35.648s-17.856-17.344-32.864-20.832l49.056-91.040h-16.96l-47.84 89.184h-61.088v-89.184h-14.816v205.824zM2982.464 834.048c33.952 0 50.912 14.816 50.912 44.448 0 14.816-4.48 25.92-13.408 33.312s-22.048 11.104-39.36 11.104h-51.52v-88.864h53.376zM3098.208 936.832h123.424v-13.888h-108.608v-77.76h84.864v-13.888h-84.864v-86.4h116.64v-13.888h-131.456v205.824zM3270.080 936.832h56.16c16.864 0 32.352-2.016 46.432-6.016s26.24-10.176 36.416-18.528c10.176-8.32 18.112-18.976 23.776-31.936s8.48-28.384 8.48-46.272c0-17.888-2.816-33.312-8.48-46.272s-13.568-23.648-23.776-32.096c-10.176-8.448-22.336-14.656-36.416-18.656s-29.568-6.016-46.432-6.016h-56.16v205.824zM3329.312 744.864c14.592 0 27.84 1.792 39.648 5.408s21.952 9.088 30.4 16.512c8.448 7.392 14.912 16.704 19.456 27.936s6.784 24.32 6.784 39.36c0 15.008-2.304 28.096-6.944 39.2s-11.2 20.352-19.744 27.776c-8.544 7.392-18.88 12.896-31.008 16.512s-25.824 5.408-41.056 5.408h-41.952v-178.048h44.448zM3541.024 936.832h68.192c10.080 0 18.72-1.376 25.92-4.16s13.056-6.496 17.6-11.104c4.512-4.64 7.808-9.984 9.888-16.032s3.072-12.512 3.072-19.296c0-5.76-0.928-11.2-2.784-16.352s-4.384-9.824-7.552-14.048c-3.2-4.224-7.040-7.776-11.584-10.656s-9.568-4.832-15.136-5.856c5.344-0.832 10.912-2.272 16.672-4.32s11.008-5.088 15.744-9.088c4.736-4 8.64-9.216 11.712-15.584s4.64-14.304 4.64-23.776c0-11.104-2.048-20.224-6.176-27.296s-9.728-12.768-16.832-16.96c-7.104-4.224-15.328-7.136-24.672-8.8s-19.296-2.464-29.792-2.464h-58.944v205.824zM3600.896 845.184c5.568 0 11.264 0.704 17.12 2.144s11.168 3.808 15.904 7.104c4.736 3.296 8.64 7.456 11.712 12.512s4.64 11.168 4.64 18.368c0 8.224-1.504 14.816-4.48 19.744s-6.848 8.736-11.584 11.424c-4.736 2.688-10.016 4.416-15.904 5.248s-11.68 1.248-17.44 1.248h-45.056v-77.76h45.056zM3596.256 744.864c7.808 0 15.648 0.352 23.456 1.088s14.88 2.464 21.152 5.248c6.272 2.784 11.36 6.944 15.264 12.512s5.856 13.152 5.856 22.848c0 9.248-1.888 16.832-5.696 22.688s-8.64 10.4-14.496 13.568c-5.856 3.2-12.384 5.408-19.584 6.624s-14.208 1.856-20.992 1.856h-45.376v-86.4h40.416zM3761.952 825.408l-70.976 111.392h17.888l60.8-96.896 60.8 96.896h17.28l-70.976-111.392v-94.432h-14.816v94.432z" />
<glyph unicode="&#xe924;" horiz-adv-x="6496" d="M29.006 177.964c-12.854 7.423-23.395 25.644-23.395 40.523v461.468c0 14.879 10.54 33.1 23.395 40.523l399.639 230.734c12.854 7.423 33.903 7.423 46.789 0l399.639-230.734c12.854-7.423 23.395-25.644 23.395-40.523v-461.468c0-14.847-10.54-33.1-23.395-40.523l-399.639-230.734c-12.854-7.423-33.903-7.423-46.789 0l-399.639 230.734z" />
<glyph unicode="&#xe925;" horiz-adv-x="6496" d="M371.443 496.171l0.193 0.129-321.613 184.651c-2.924-4.885-4.788-10.412-4.788-15.425v-432.931c0-5.077 1.96-10.701 4.981-15.65l321.196 185.294v93.932z" />
<glyph unicode="&#xe926;" horiz-adv-x="6496" d="M413.508 520.337l199.016 114.499c1.703 0.996 2.764 2.796 2.764 4.788v180.506c0 1.96-1.060 3.792-2.764 4.788l-145.060 83.521c-8.355 4.82-22.141 4.82-30.561 0l-376.34-216.498c-4.081-2.314-7.777-6.363-10.54-10.958l321.613-184.651 41.873 24.070z" />
<glyph unicode="&#xe927;" horiz-adv-x="6496" d="M60.595 206.179l302.589-174.014c3.663-2.121 8.259 0.514 8.259 4.788v365.286l-321.196-185.294c2.732-4.467 6.331-8.42 10.316-10.733z" />
<glyph unicode="&#xe928;" horiz-adv-x="6496" d="M854.731 680.341c-2.796 4.885-6.62 9.127-10.894 11.569l-138.858 79.857c-3.696 2.121-8.259-0.514-8.259-4.788v-177.357z" />
<glyph unicode="&#xe929;" horiz-adv-x="6496" d="M453.26 449.414l401.856-230.734c2.41 4.499 4.017 9.416 4.017 13.883v432.931c0 4.788-1.703 10.091-4.37 14.815l-401.47-230.927z" />
<glyph unicode="&#xe92a;" horiz-adv-x="6496" d="M453.26 449.414l-0.032-456.615c0-5.077 5.495-8.259 9.93-5.72l380.679 219.101c4.499 2.635 8.484 7.295 11.28 12.501l-401.856 230.734z" />
<glyph unicode="&#xe92b;" horiz-adv-x="6496" d="M2165.704 422.838c-19.796 0-33.935-6.106-42.515-18.317s-12.854-30.754-12.854-55.852c0-25.002 4.274-43.64 12.854-55.852 8.58-12.115 22.72-18.221 42.515-18.221h163.024c19.86 0 29.693 9.962 29.693 29.629v118.613h-192.717zM2326.8 709.488c24.359 0 45.793-3.728 64.271-11.312 18.382-7.552 33.807-18.317 46.436-32.103 12.501-13.915 21.659-30.175 27.605-48.943 6.041-18.767 8.934-39.334 8.934-61.861v-280.673c0-59.355-29.629-88.984-88.887-88.984h-263.962c-44.829 0-77.736 13.561-98.785 40.587-21.145 27.026-31.718 67.838-31.718 122.469 0 49.521 10.573 88.984 31.718 118.709 21.017 29.661 53.924 44.444 98.785 44.444h237.225v33.71c0 49.971-24.359 75.069-73.109 75.069h-256.025v88.887h297.544z" />
<glyph unicode="&#xe92c;" horiz-adv-x="6496" d="M2812.98 186.962c-29.629 0-56.302 2.828-80.114 8.484-23.62 5.431-43.929 15.039-60.736 28.729-16.839 13.465-29.661 30.979-38.563 52.702-8.934 21.82-13.336 48.846-13.336 81.175v263.801h-72.145v88.984h72.145v168.037h115.624v-168.037h149.27v-88.984h-149.27v-240.15c0-39.559 10.251-67.067 30.657-82.524s50.421-23.17 89.98-23.17h28.633v-88.984h-72.145z" />
<glyph unicode="&#xe92d;" horiz-adv-x="6496" d="M3224.927 184.809c-29.693 0-56.398 2.828-80.146 8.355-23.684 5.656-43.962 15.168-60.704 28.729-16.839 13.561-29.758 31.075-38.563 52.799-8.934 21.82-13.336 48.846-13.336 81.078v263.93h-72.209v88.984h72.209v168.037h115.624v-168.037h149.334v-88.984h-149.334v-240.15c0-39.591 10.251-67.163 30.625-82.556 20.47-15.489 50.453-23.17 89.883-23.17h28.794v-89.016h-72.209z" />
<glyph unicode="&#xe92e;" horiz-adv-x="6496" d="M3725.889 496.461c10.958 0 17.964 3.278 20.792 9.866 2.924 6.524 4.403 13.433 4.403 20.567 0 17.064-3.567 31.782-10.701 44.347-7.166 12.308-16.711 22.495-28.665 30.4-11.987 7.809-25.998 13.593-41.905 17.193-15.843 3.631-32.232 5.431-49.135 5.431-48.621 0-82.717-10.187-102.127-30.529-19.442-20.245-29.147-52.67-29.147-97.242h236.454zM3566.303 185.934c-41.616 0-74.908 5.784-100.295 17.193-25.194 11.44-44.829 28.376-58.776 50.646-13.915 22.141-23.395 49.521-28.215 81.978-4.885 32.457-7.231 69.67-7.231 111.607 0 51.674 4.628 94.639 14.043 128.671s24.327 61.186 44.829 81.528c20.342 20.342 46.179 34.61 77.286 42.74 31.139 8.259 68.738 12.308 112.86 12.308 36.345 0 69.702-2.924 100.231-8.805 30.497-5.881 56.591-16.614 78.379-32.007 21.659-15.361 38.659-36.281 50.999-62.857 12.34-26.48 18.542-60.704 18.542-102.673 0-29.501-6.009-53.249-18.028-71.245s-32.553-27.026-61.733-27.026h-299.633c0-19.667 1.060-37.631 3.342-54.020 2.314-16.389 7.295-30.432 15.104-42.29 7.873-11.762 18.928-20.92 33.582-27.476 14.59-6.556 34.16-9.834 58.872-9.834h252.040v-88.437h-286.071z" />
<glyph unicode="&#xe92f;" horiz-adv-x="6496" d="M4152.65 708.363c-70.57 0-123.433-15.393-158.589-46.018-35.285-30.657-52.96-81.175-52.96-151.648v-326.209h115.688v295.551c0 46.822 9.287 81.657 27.701 104.73 18.382 23.073 50.999 34.61 97.853 34.61h96.053v88.984h-125.715z" />
<glyph unicode="&#xe930;" horiz-adv-x="6496" d="M4468.961 273.825h127.482c27.701 0 49.81 4.403 66.264 13.336 16.518 8.837 29.018 21.017 37.599 36.538s13.947 33.807 16.293 54.823c2.314 21.145 3.439 44.090 3.439 69.22 0 24.423-1.157 47.047-3.439 68.192s-7.68 39.334-16.293 54.823c-8.58 15.489-21.081 27.605-37.599 36.185-16.453 8.484-38.563 12.79-66.264 12.79h-97.853c-19.731 0-29.629-8.58-29.629-25.676v-320.232zM4625.173 708.684c42.13 0 76.965-6.331 104.248-18.767 27.38-12.565 49.232-30.175 65.814-52.927 16.389-22.72 27.926-50.067 34.546-81.978 6.491-32.007 9.898-67.71 9.898-107.301s-3.406-75.422-9.898-107.751c-6.588-32.328-18.157-59.933-34.546-83.006-16.582-23.073-38.434-40.941-65.814-53.377-27.315-12.533-62.118-18.767-104.248-18.767h-156.211v-168.037h-115.624v602.929c0 59.258 29.693 88.984 88.951 88.984h182.884z" />
<glyph unicode="&#xe931;" horiz-adv-x="6496" d="M5031.849 452.017c0-31.75 2.732-58.776 8.259-81.078 5.431-22.399 14.236-40.716 26.191-54.856 12.051-14.365 28.054-24.744 48.107-31.204s44.604-9.737 73.783-9.737c29.147 0 53.827 3.31 73.719 9.737 20.149 6.427 36.12 16.839 48.107 31.204 11.922 14.14 20.76 32.457 26.287 54.856 5.431 22.27 8.259 49.296 8.259 81.078 0 31.654-2.828 58.583-8.259 80.628-5.527 21.917-14.365 39.912-26.287 53.827-11.987 14.011-27.99 24.198-48.107 30.625-19.892 6.427-44.54 9.737-73.719 9.737s-53.731-3.278-73.783-9.737-36.056-16.614-48.107-30.625c-11.922-13.915-20.727-31.911-26.191-53.827-5.527-22.077-8.259-48.975-8.259-80.628zM5188.189 714.115c45.954 0 86.124-3.953 120.412-12.115 34.257-8.002 62.761-22.174 85.384-42.162 22.688-20.149 39.752-46.95 51.064-80.628 11.344-33.71 16.968-76.129 16.968-127.225 0-51.899-5.592-94.543-16.968-128.221-11.312-33.582-28.376-60.704-51.064-81.078-22.591-20.342-51.096-34.61-85.384-42.74s-74.458-12.115-120.412-12.115c-46.018 0-86.124 3.985-120.476 12.115-34.257 8.162-62.761 22.399-85.384 42.74-22.72 20.342-39.688 47.496-51.064 81.078-11.312 33.71-16.968 76.322-16.968 128.221 0 51.096 5.656 93.515 16.968 127.225 11.376 33.678 28.311 60.479 51.064 80.628 22.623 20.021 51.096 34.16 85.384 42.162 34.385 8.162 74.458 12.115 120.476 12.115v0z" />
<glyph unicode="&#xe932;" horiz-adv-x="6496" d="M6219.968 184.809c-29.725 0-56.366 2.828-80.050 8.355-23.813 5.656-44.058 15.168-60.897 28.729-16.743 13.561-29.629 31.075-38.498 52.799-8.934 21.82-13.401 48.846-13.401 81.078v263.93h-72.145v88.984h72.145v168.037h115.688v-168.037h149.206v-88.984h-149.206v-240.15c0-39.591 10.155-67.163 30.593-82.556 20.47-15.489 50.549-23.17 89.948-23.17h28.665v-89.016h-72.048z" />
<glyph unicode="&#xe933;" horiz-adv-x="6496" d="M5754.001 708.684c-70.538 0-123.433-15.361-158.621-46.018-35.285-30.625-52.927-81.175-52.927-151.616v-326.209h115.72v295.584c0 46.822 9.223 81.657 27.605 104.698 18.446 23.073 51.096 34.61 97.853 34.61h95.989v88.984h-125.618z" />
<glyph unicode="&#xe934;" horiz-adv-x="6496" d="M1900.649 615.748c-10.219 23.073-24.198 41.487-42.001 55.402-17.803 13.786-39.238 23.523-64.207 29.147-25.034 5.527-52.413 8.355-82.107 8.355h-542.642v-523.875h115.688v434.892h199.659v-434.892h115.624v434.892h89.948c39.591 0 67.678-10.187 84.517-30.625 16.743-20.47 25.226-50.453 25.226-90.044v-314.222h115.624v345.008c0 34.257-5.077 62.857-15.329 85.931z" />
<glyph unicode="&#xe935;" horiz-adv-x="6496" d="M6419.787 668.483h10.058c4.981 0 8.934 1.285 11.954 3.856s4.499 5.849 4.499 9.834c0 4.628-1.318 7.97-3.985 9.994s-6.877 3.021-12.629 3.021h-9.866v-26.673zM6460.15 682.526c0-4.981-1.285-9.351-3.953-13.143s-6.331-6.652-11.119-8.516l22.109-36.763h-15.586l-19.249 32.939h-12.565v-32.939h-13.754v82.878h24.262c10.283 0 17.835-2.025 22.656-6.041s7.198-10.155 7.198-18.382zM6371.616 665.59c0-10.733 2.667-20.727 8.098-30.079s12.758-16.678 22.077-22.013c9.319-5.399 19.314-8.066 29.983-8.066 10.798 0 20.792 2.667 30.047 8.066s16.582 12.694 21.981 21.917c5.431 9.223 8.162 19.281 8.162 30.175 0 10.798-2.699 20.792-8.098 30.047-5.399 9.223-12.694 16.582-21.917 21.981s-19.281 8.162-30.175 8.162c-10.798 0-20.792-2.732-30.047-8.098-9.223-5.399-16.55-12.694-21.949-21.917-5.463-9.223-8.162-19.281-8.162-30.175zM6361.879 665.59c0 12.404 3.085 24.005 9.287 34.899s14.718 19.41 25.58 25.644c10.862 6.299 22.559 9.416 35.060 9.416 12.404 0 24.005-3.117 34.867-9.319s19.41-14.718 25.676-25.548c6.266-10.862 9.384-22.559 9.384-35.092 0-12.212-3.021-23.684-9.030-34.385s-14.429-19.314-25.291-25.741c-10.83-6.427-22.72-9.673-35.606-9.673-12.854 0-24.68 3.181-35.542 9.609-10.862 6.395-19.314 14.975-25.355 25.709s-9.062 22.206-9.062 34.482v0z" />
<glyph unicode="&#xe936;" glyph-name="ext-link" d="M416 800h-288c-63.424 0-128-63.872-128-128v-608c0-63.072 63.872-128 128-128h608c63.072 0 128 63.968 128 128v288h-160v-288h-576v576h288v160zM662.848 815.008c-40.032 0-72.48 32.448-72.48 72.48s32.448 72.48 72.48 72.48h361.152v-361.152c0-40.032-32.448-72.48-72.48-72.48s-72.48 32.448-72.48 72.48v113.664l-387.488-383.616c-28.32-28.32-74.208-28.32-102.528 0s-28.32 74.208 0 102.528l387.488 383.616h-113.664z" />
<glyph unicode="&#xe937;" glyph-name="beta-badge" horiz-adv-x="2048" d="M128 960h1792c70.692 0 128-57.308 128-128v-768c0-70.692-57.308-128-128-128h-1792c-70.692 0-128 57.308-128 128v768c0 70.692 57.308 128 128 128zM431.36 659.2v-435.2h173.44c44.8 0 79.573 10.24 104.32 30.72s37.12 51.84 37.12 94.080c0 27.307-4.587 48.64-13.76 64s-23.36 27.093-42.56 35.2c17.493 11.093 29.867 23.787 37.12 38.080s10.88 33.6 10.88 57.92c0 40.534-11.307 69.867-33.92 88s-56.533 27.2-101.76 27.2h-170.88zM899.52 304.96c-10.027 8.747-15.253 22.933-15.68 42.56h188.16l6.4 59.52c0 96.427-46.506 144.64-139.52 144.64-94.294 0-141.44-57.386-141.44-172.16 0-57.6 10.88-99.2 32.64-124.8s56.746-38.4 104.96-38.4c39.68 0 84.053 5.973 133.12 17.92l-1.28 63.36-17.92-1.92c-31.147-2.56-66.56-3.84-106.24-3.84-18.773 0-33.173 4.373-43.2 13.12zM1317.12 471.040v72.96h-78.72v88.96h-85.76v-88.96h-37.76v-72.96h37.76v-133.12c0-46.507 7.040-78.4 21.12-95.68s40.32-25.92 78.72-25.92c14.933 0 36.693 3.2 65.28 9.6l-3.84 68.48-48.64-1.28c-8.533 0-14.827 1.92-18.88 5.76s-6.4 8.427-7.040 13.76c-0.64 5.333-0.96 14.4-0.96 27.2v131.2h78.72zM1617.92 444.16c0 37.547-9.067 64.853-27.2 81.92s-47.786 25.6-88.96 25.6c-41.174 0-84.586-6.187-130.24-18.56l2.56-59.52 120.32 5.12c13.227 0 22.827-2.453 28.8-7.36s8.96-13.973 8.96-27.2v-19.84l-68.48-5.12c-37.974-2.56-66.133-10.987-84.48-25.28s-27.52-38.506-27.52-72.64c0-69.974 33.066-104.96 99.2-104.96 32 0 63.36 7.467 94.080 22.4 13.227-8.96 26.347-14.933 39.36-17.92s30.4-4.48 52.16-4.48l2.56 64.64c-8.107 1.707-13.44 4.587-16 8.64s-4.267 11.2-5.12 21.44v133.12zM1473.92 359.68c-23.893-2.133-35.84-14.933-35.84-38.4s10.453-35.2 31.36-35.2c16.213 0 33.92 2.56 53.12 7.68l9.6 2.56v68.48l-58.24-5.12zM993.92 412.8c0 25.6-4.053 43.413-12.16 53.44s-22.293 15.040-42.56 15.040c-20.267 0-34.56-5.227-42.88-15.68s-12.693-28.053-13.12-52.8h110.72zM600.32 405.76h-80.64v-106.24h80.64c19.2 0 33.387 3.84 42.56 11.52s13.76 21.76 13.76 42.24c0 34.987-18.773 52.48-56.32 52.48zM597.76 583.68h-78.080v-103.68h78.72c33.28 0 49.92 17.28 49.92 51.84s-16.853 51.84-50.56 51.84z" />
<glyph unicode="&#xe938;" glyph-name="pause" d="M377.024 660.416c0 20.096 16.288 36.416 36.416 36.416s36.416-16.288 36.416-36.416v-434.912c0-20.096-16.288-36.416-36.416-36.416s-36.416 16.288-36.416 36.416v434.912zM581.728 660.416c0 20.096 16.288 36.416 36.416 36.416s36.416-16.288 36.416-36.416v-434.912c0-20.096-16.288-36.416-36.416-36.416s-36.416 16.288-36.416 36.416v434.912zM512 890.176c-244.224 0-442.176-197.984-442.176-442.176s197.984-442.176 442.176-442.176c244.224 0 442.176 197.984 442.176 442.176s-197.984 442.176-442.176 442.176zM512 960c282.784 0 512-229.216 512-512s-229.216-512-512-512c-282.784 0-512 229.216-512 512s229.216 512 512 512z" />
<glyph unicode="&#xe939;" glyph-name="pin" d="M512 960c-188.512 0-341.344-152.864-341.344-341.344 0-62.272 16.768-120.448 45.856-170.688l295.456-511.968 295.488 511.968c29.088 50.24 45.856 108.416 45.856 170.688 0 188.48-152.832 341.344-341.312 341.344v0zM511.936 483.936c-74.464 0-134.88 60.32-134.88 134.816 0 74.368 60.416 134.784 134.88 134.784s134.816-60.416 134.816-134.784c0-74.496-60.352-134.816-134.816-134.816v0z" />
<glyph unicode="&#xe93a;" glyph-name="play-unicode" d="M192 832l640-384-640-384z" />
<glyph unicode="&#xe93b;" glyph-name="play" d="M413.472 217.376c-22.24-12.928-51.488-6.816-65.856 14.176-5.088 7.456-7.84 16.192-7.84 25.152v363.936c0 25.824 22.016 46.112 48.416 46.112 8.896 0 17.664-2.336 25.28-6.784l312.736-182.080c23.136-13.472 30.272-42.624 15.296-64.512-3.936-5.76-9.184-10.592-15.328-14.144l-312.736-181.824zM401.056 597.952v-318.528l273.728 159.168-273.728 159.36zM512 890.176c-244.224 0-442.176-197.984-442.176-442.176s197.984-442.176 442.176-442.176c244.224 0 442.176 197.984 442.176 442.176s-197.984 442.176-442.176 442.176zM512 960c282.784 0 512-229.216 512-512s-229.216-512-512-512c-282.784 0-512 229.216-512 512s229.216 512 512 512z" />
<glyph unicode="&#xe93c;" glyph-name="remove" d="M512 38.4c-226.208 0-409.6 183.392-409.6 409.6s183.392 409.6 409.6 409.6c226.208 0 409.6-183.392 409.6-409.6s-183.392-409.6-409.6-409.6zM326.752 398.048l371.424-0.32 0.448 98.464-370.464-0.352-1.408-97.792z" />
<glyph unicode="&#xe93d;" glyph-name="rotate" d="M484.544 246.688l192.512-193.312-19.264-0.864c-2.72-0.128-4.864-0.256-9.728-0.544-10.016-0.608-14.56-0.832-20.576-0.832-288.096 0-526.976 221.632-550.624 507.648l-0.768 9.248h85.056l0.736-7.712c15.552-162.848 115.072-304.448 260.576-376.224l62.080 62.656zM544.192 658.048l-191.744 192.032 18.176 1.664c4.896 0.448 7.232 0.672 9.888 0.864 7.904 0.64 14.24 0.96 20.768 0.96 288.096 0 526.976-221.632 550.624-507.648l0.768-9.248h-85.056l-0.736 7.712c-15.584 162.912-115.168 304.48-260.576 375.808l-62.080-62.176z" />
<glyph unicode="&#xe93e;" glyph-name="share" d="M733.248 696.224l-413.024-202.528c4.192-14.432 6.464-29.696 6.464-45.504 0-17.44-2.752-34.24-7.84-50.016l407.008-212.544c28.896 44.384 79.040 73.728 136.032 73.728 89.536 0 162.112-72.384 162.112-161.696s-72.576-161.696-162.112-161.696c-89.536 0-162.112 72.384-162.112 161.696 0 4.064 0.16 8.096 0.448 12.064l-423.52 221.184c-29.376-28.256-69.344-45.632-113.376-45.632-90.208 0-163.328 72.928-163.328 162.912s73.12 162.912 163.328 162.912c45.728 0 87.104-18.752 116.736-48.992l419.648 205.792c-1.888 9.824-2.848 20-2.848 30.368 0 89.312 72.576 161.696 162.112 161.696s162.112-72.384 162.112-161.696c0-89.312-72.576-161.696-162.112-161.696-50.72 0-96 23.232-125.728 59.616z" />
<glyph unicode="&#xe93f;" glyph-name="show" horiz-adv-x="1728" d="M1735.040 455.968c-0.032 0.704-0.096 1.376-0.16 2.048-0.032 0.352-0.064 0.704-0.096 1.024-0.064 0.512-0.128 0.992-0.192 1.472-0.064 0.576-0.128 1.152-0.256 1.728-0.032 0.064-0.032 0.16-0.032 0.224-2.112 12.896-8.384 24.992-17.984 34.272-54.848 63.040-120.128 119.136-186.496 170.4-142.944 110.4-306.4 202.784-486.816 239.968-104.288 21.472-209.216 22.4-314.048 4.224-95.36-16.544-187.264-50.912-273.28-93.536-134.624-66.688-257.6-158.656-364.736-261.728-19.84-19.072-39.552-38.56-57.568-59.264-24-27.584-24-60.256 0-87.808 54.848-63.040 120.128-119.136 186.496-170.4 142.944-110.4 306.4-202.784 486.848-239.936 104.288-21.504 209.248-22.4 314.080-4.224 95.328 16.544 187.232 50.912 273.28 93.536 134.624 66.72 257.6 158.656 364.736 261.728 19.84 19.104 39.552 38.56 57.568 59.264 9.6 9.312 15.84 21.408 17.984 34.304 0 0.064 0.032 0.16 0.032 0.224 0.096 0.576 0.16 1.152 0.256 1.728 0.064 0.48 0.16 0.992 0.192 1.472 0.032 0.352 0.064 0.672 0.096 1.024 0.064 0.672 0.128 1.344 0.16 2.048 0.064 1.024 0.096 2.080 0.096 3.104s-0.064 2.080-0.128 3.104v0zM875.264 132.032c-182.752 0-330.912 143.616-330.912 320.832s148.128 320.832 330.912 320.832 330.912-143.616 330.912-320.832c0-177.184-148.128-320.832-330.912-320.832v0zM1059.84 448c0-98.976-80.224-179.2-179.2-179.2s-179.2 80.224-179.2 179.2c0 98.976 80.224 179.2 179.2 179.2s179.2-80.224 179.2-179.2z" />
<glyph unicode="&#xe940;" glyph-name="hide" horiz-adv-x="1248" d="M519.52 123.52l512.224 515.072c15.008-10.688 29.76-21.696 44.192-32.992 46.816-36.608 92.864-76.672 131.584-121.696 6.784-6.656 11.2-15.264 12.672-24.48 0-0.064 0-0.096 0.032-0.16 0.064-0.416 0.128-0.832 0.16-1.248 0.064-0.352 0.096-0.704 0.16-1.056 0.032-0.224 0.032-0.48 0.064-0.736 0.032-0.48 0.096-0.96 0.096-1.472 0.032-0.736 0.096-1.472 0.096-2.208s-0.032-1.504-0.064-2.24c-0.032-0.512-0.064-0.992-0.096-1.44-0.032-0.256-0.032-0.48-0.064-0.736-0.032-0.352-0.096-0.704-0.16-1.056-0.064-0.416-0.096-0.832-0.16-1.248 0-0.064-0.032-0.096-0.032-0.16-1.504-9.216-5.92-17.856-12.672-24.512-12.704-14.816-26.624-28.704-40.64-42.336-75.584-73.632-162.368-139.296-257.344-186.944-60.704-30.432-125.568-55.008-192.832-66.816-65.792-11.552-131.648-12.32-197.184-1.536zM189.088 271.264c-12.704 9.184-25.216 18.592-37.472 28.192-46.816 36.608-92.864 76.672-131.584 121.696-16.928 19.712-16.928 43.040 0 62.72 12.704 14.816 26.624 28.704 40.64 42.336 75.584 73.632 162.368 139.328 257.344 186.944 60.704 30.432 125.536 55.008 192.832 66.816 62.464 10.976 124.992 12.192 187.264 3.072l-508.992-511.808zM992.224 919.744l-884.512-895.328 79.552-80.544 924.32 935.584-79.552 80.544z" />
<glyph unicode="&#xe941;" glyph-name="toggle-box" horiz-adv-x="992" d="M492.448 745.024l233.728-136.992-233.76-136.992-233.76 136.992 233.76 136.992zM512.512 435.776l232.736 136.384v-271.584l-232.704-136.416-0.032 271.616zM655.232 370.72l-38.368 21.6c-5.376 3.104-12.32 1.248-15.456-4.032s-1.28-12 4.16-15.040l38.368-21.6c1.76-0.992 3.712-1.472 5.664-1.472 3.904 0 7.712 1.952 9.824 5.536 3.104 5.248 1.248 12-4.16 15.040h-0.032zM732.064 327.552l-38.368 21.6c-5.408 3.072-12.32 1.248-15.456-4.032s-1.28-12 4.16-15.040l38.368-21.6c1.76-0.992 3.712-1.472 5.664-1.472 3.904 0 7.712 1.952 9.824 5.536 3.104 5.248 1.248 12-4.16 15.040h-0.032zM578.432 413.888l-38.368 21.6c-5.376 3.072-12.32 1.248-15.456-4.032s-1.28-12 4.16-15.040l38.368-21.6c1.76-0.992 3.712-1.472 5.664-1.472 3.904 0 7.712 1.952 9.824 5.536 3.104 5.28 1.248 12-4.16 15.040h-0.032zM472.96 435.776l-232.736 136.384v-271.584l232.704-136.416 0.032 271.616zM330.272 370.72l38.368 21.6c5.376 3.104 12.32 1.248 15.456-4.032s1.28-12-4.16-15.040l-38.368-21.6c-1.76-0.992-3.712-1.472-5.664-1.472-3.904 0-7.712 1.952-9.824 5.536-3.104 5.248-1.248 12 4.16 15.040h0.032zM253.44 327.552l38.368 21.6c5.408 3.072 12.32 1.248 15.456-4.032s1.28-12-4.16-15.040l-38.368-21.6c-1.76-0.992-3.712-1.472-5.664-1.472-3.904 0-7.712 1.952-9.824 5.536-3.104 5.248-1.248 12 4.16 15.040h0.032zM407.072 413.888l38.368 21.6c5.376 3.072 12.32 1.248 15.456-4.032s1.28-12-4.16-15.040l-38.368-21.6c-1.76-0.992-3.712-1.472-5.664-1.472-3.904 0-7.712 1.952-9.824 5.536-3.104 5.28-1.248 12 4.16 15.040h0.032z" />
<glyph unicode="&#xe942;" glyph-name="toggle-pencil" d="M245.888 209.184c-1.088-8.608 5.12-14.688 13.632-13.632l183.008 22.88 223.392 223.424-173.76 173.792-223.392-223.424-22.88-183.040zM529.376 652.864l173.76-173.792 52.128 52.128c12.352 12.352 12.512 32.192-0.032 44.704l-129.024 129.056c-12.352 12.352-32.416 12.32-44.704 0.032l-52.128-52.128z" />
<glyph unicode="&#xe943;" glyph-name="user" d="M547.2 960l-48.736-0.064c-87.392-5.568-136.064-45.92-161.536-78.784-40.32-52-47.040-114.88-41.632-144.448 7.712-43.104 10.816-98.624 8.544-109.088-0.448-1.792-1.12-3.456-1.792-5.056-5.888-15.584-10.144-32.16-1.088-77.792 10.24-51.68 26.176-78.816 37.92-92.576 4.192-31.968 15.84-67.648 25.792-88.864 7.264-15.552 10.592-36.608 10.592-66.496 0-27.68-0.96-28.064-7.2-30.016-46.176-13.792-150.368-56.928-256.32-128.48-35.296-23.84-36.32-202.336 3.808-202.336h818.112c37.344 0 40.128 175.136 0.864 200.672-112.256 73.216-217.44 117.472-262.784 131.072-6.592 2.112-7.616 2.4-7.616 30.112 0 22.912 9.344 45.92 18.368 65.472 9.856 21.216 21.504 56.896 25.696 88.864 11.808 13.76 27.84 40.896 38.016 92.576 9.024 45.632 4.832 62.208-1.184 77.792-0.64 1.6-1.28 3.264-1.696 4.864-2.304 10.688 0.832 66.208 8.544 109.28 5.312 29.536-1.408 92.416-41.568 144.448-25.44 32.864-74.144 73.216-163.040 78.816z" />
<glyph unicode="&#xe944;" glyph-name="vr" d="M471.52 144.704c-9.664-18.72-28.864-30.592-49.536-30.336h-319.616c-66.976 0.096-102.304 33.856-102.4 106.496v454.4c0.096 75.456 27.168 106.336 102.4 106.432h819.232c70.688-0.096 102.304-37.024 102.4-106.496v-454.4c-0.064-66.048-36.192-106.112-102.176-106.432h-323.008c-22.56-0.352-42.816 13.184-51.552 33.472l-36.512 81.12-39.232-84.256zM520 248.768c-1.408-2.912-4.896-5.216-9.088-5.216-4.224 0-7.744 2.336-9.184 5.408l9.024-20.032 9.248 19.84zM607.072 174.144c-0.032 0.064-0.064 0.16-0.096 0.224l0.096-0.224zM422.368 179.712c-0.096 0-0.16 0-0.256 0h0.256zM921.632 179.712c28.352 0.16 36.96 9.696 36.992 41.12v454.304c-0.032 35.424-4.896 41.12-37.056 41.152h-819.136c-37.088-0.064-37.024 0.032-37.088-41.12v-454.304c0.032-35.872 5.536-41.12 37.056-41.152h313.312l44.928 96.544c9.024 19.808 28.544 32.704 50.24 32.704s41.088-12.832 50.304-32.832l43.36-96.384h317.056zM296.096 395.744c26.72 0.128 49.024 23.808 49.024 53.888 0 22.272-12.48 42.016-30.976 50.080-17.92 7.808-38.4 3.488-52.384-11.328-14.656-15.616-19.072-39.488-10.912-60.128 7.904-20.032 25.856-32.64 45.28-32.512zM296.448 330.4c-46.816-0.288-88.768 29.152-106.4 73.856-17.408 44.032-8 94.752 24.128 128.928 32.8 34.784 82.72 45.376 126.112 26.432 42.72-18.656 70.208-62.144 70.208-109.984 0-65.28-50.528-118.976-114.048-119.264zM727.488 395.744c26.72 0.128 49.024 23.808 49.024 53.888 0 22.272-12.48 42.016-30.976 50.080-17.92 7.808-38.4 3.488-52.384-11.328-14.656-15.616-19.072-39.488-10.912-60.128 7.904-20.032 25.856-32.64 45.28-32.512zM727.84 330.4c-46.816-0.288-88.768 29.152-106.4 73.856-17.408 44.032-8 94.752 24.128 128.928 32.8 34.784 82.72 45.376 126.112 26.432 42.72-18.656 70.208-62.144 70.208-109.984 0-65.28-50.528-118.976-114.048-119.264z" />
<glyph unicode="&#xe945;" glyph-name="location" d="M512 960c-176.736 0-320-143.264-320-320 0-320 320-704 320-704s320 384 320 704c0 176.736-143.264 320-320 320zM512 448c-106.048 0-192 85.952-192 192s85.952 192 192 192 192-85.952 192-192-85.952-192-192-192z" />
<glyph unicode="&#xe946;" glyph-name="media-mix" d="M718.222 558.667h-310.222c-23.564 0-42.667-19.103-42.667-42.667v-345.333h-73.778v71.111h-71.111v-71.111h-71.111v640h71.111v-71.111h71.111v71.111h284.444v-71.111h71.111v71.111h71.111v-252zM291.556 312.889v71.111h-71.111v-71.111h71.111zM291.556 455.111v71.111h-71.111v-71.111h71.111zM291.556 597.333v71.111h-71.111v-71.111h71.111zM647.111 597.333v71.111h-71.111v-71.111h71.111zM844.19 469.333c16.762 0 30.476-13.714 30.476-30.476v-365.714c0-16.762-13.714-30.476-30.476-30.476h-365.714c-16.762 0-30.476 13.714-30.476 30.476v365.714c0 16.762 13.714 30.476 30.476 30.476h365.714zM508.952 103.619h304.762l-97.829 152.381-76.19-116.272-54.552 77.635-76.19-113.744z" />
<glyph unicode="&#xe947;" glyph-name="more-tag-panel" d="M298.667 519.111c-39.111 0-71.111-32-71.111-71.111s32-71.111 71.111-71.111c39.111 0 71.111 32 71.111 71.111s-32 71.111-71.111 71.111v0zM725.333 519.111c-39.111 0-71.111-32-71.111-71.111s32-71.111 71.111-71.111c39.111 0 71.111 32 71.111 71.111s-32 71.111-71.111 71.111v0zM512 519.111c-39.111 0-71.111-32-71.111-71.111s32-71.111 71.111-71.111c39.111 0 71.111 32 71.111 71.111s-32 71.111-71.111 71.111v0z" />
<glyph unicode="&#xe948;" glyph-name="camera-stroke" horiz-adv-x="996" d="M897.991 695.908h-157.75l-91.69 92.096c-0.114 0.115-0.21 0.191-0.305 0.306l-0.172 0.134c-13.769 13.662-32.687 22.107-53.607 22.107h-190.703c-22.16 0-41.917-9.592-55.876-24.706l-0.076 0.21-89.802-90.148h-160.972c-42.126 0-76.281-34.221-76.281-76.429v-458.572c0-42.208 34.155-76.429 76.281-76.429h800.953c42.145 0 76.3 34.221 76.3 76.429v458.572c0 42.208-34.155 76.429-76.3 76.429v0zM897.991 122.694h-800.953c-21.035 0-38.141 17.158-38.141 38.214v458.572c0 21.075 17.106 38.214 38.141 38.214h176.782l11.194 11.216 46.169 46.354 44.72 44.634c7.418 8.025 17.297 12.439 27.862 12.439h190.703c10.069 0 19.604-3.917 27.080-11.311l102.865-103.331h173.578c21.015 0 38.16-17.139 38.16-38.214v-458.572c0-21.056-17.144-38.214-38.16-38.214zM497.514 657.694c-136.925 0-247.914-111.185-247.914-248.355 0-137.189 110.989-248.431 247.914-248.431s247.914 111.242 247.914 248.431c0 137.17-110.989 248.355-247.914 248.355v0zM497.514 199.122c-115.661 0-209.773 94.294-209.773 210.217 0 115.866 94.112 210.14 209.773 210.14s209.773-94.275 209.773-210.14c0-115.923-94.112-210.217-209.773-210.217v0zM497.514 581.266c-94.818 0-171.633-76.964-171.633-171.926 0-94.982 76.815-172.003 171.633-172.003s171.633 77.021 171.633 172.003c0 94.963-76.815 171.926-171.633 171.926v0zM497.514 275.551c-73.611 0-133.492 60.035-133.492 133.788 0 73.735 59.881 133.712 133.492 133.712 73.592 0 133.492-59.977 133.492-133.712 0-73.754-59.9-133.788-133.492-133.788v0z" />
<glyph unicode="&#xe949;" glyph-name="camera-fill" horiz-adv-x="996" d="M897.991 695.908v0c42.145 0 76.3-34.221 76.3-76.429v-458.572c0-42.208-34.155-76.429-76.3-76.429h-800.953c-42.126 0-76.281 34.221-76.281 76.429v458.572c0 42.208 34.155 76.429 76.281 76.429h160.972l89.802 90.148 0.076-0.21c13.959 15.114 33.716 24.706 55.876 24.706h190.703c20.92 0 39.838-8.445 53.607-22.107l0.172-0.134c0.095-0.115 0.191-0.191 0.305-0.306l91.69-92.096h157.75zM497.514 657.694c-136.925 0-247.914-111.185-247.914-248.355 0-137.189 110.989-248.431 247.914-248.431s247.914 111.242 247.914 248.431c0 137.17-110.989 248.355-247.914 248.355v0zM497.514 581.266v0c94.818 0 171.633-76.964 171.633-171.926 0-94.982-76.815-172.003-171.633-172.003s-171.633 77.021-171.633 172.003c0 94.963 76.815 171.926 171.633 171.926z" />
<glyph unicode="&#xe94a;" glyph-name="photo-2d" d="M105.813 789.333c-39.199 0-71.68-32.481-71.68-71.68v-512c0-39.199 32.481-71.68 71.68-71.68h798.72c39.199 0 71.68 32.481 71.68 71.68v512c0 39.199-32.481 71.68-71.68 71.68h-798.72zM105.813 727.893h798.72c6.185 0 10.24-4.055 10.24-10.24v-401.927l-161.601 176.961c-6.24 6.827-15.729 10.622-24.958 9.926-7.578-0.532-14.937-4.055-20.166-9.598l-138.868-147.524-204.8 228.803c-6.199 6.936-15.688 10.827-24.972 10.24-7.673-0.478-15.196-4-20.48-9.598l-223.355-239.998v382.717c0 6.185 4.055 10.24 10.24 10.24v0zM576.853 707.413c-50.558 0-92.16-41.602-92.16-92.16s41.602-92.16 92.16-92.16c50.558 0 92.16 41.602 92.16 92.16s-41.602 92.16-92.16 92.16v0zM576.853 645.973c17.34 0 30.72-13.38 30.72-30.72s-13.38-30.72-30.72-30.72c-17.34 0-30.72 13.38-30.72 30.72s13.38 30.72 30.72 30.72v0zM340.692 508.375l280.003-312.962h-514.881c-6.185 0-10.24 4.055-10.24 10.24v39.363l245.118 263.359zM730.139 426.769l184.634-202.233v-18.883c0-6.185-4.055-10.24-10.24-10.24h-201.277l-93.116 103.997 119.999 127.358z" />
<glyph unicode="&#xe94b;" glyph-name="photo-360" d="M807.018 521.496l-0.034-36.139-75.537 76.184c-6.554 6.805-17.783 7.423-25.088 1.302-0.512-0.391-0.956-0.846-1.399-1.302l-92.638-96.337-154.999 156.243c-6.554 6.837-17.783 7.423-25.088 1.302-0.478-0.391-0.956-0.846-1.399-1.302l-184.934-188.8v81.394c-121.207 28.618-197.12 74.85-197.12 117.825 0 69.022 190.157 145.857 462.882 145.857 272.691 0 462.882-76.836 462.882-145.857 0.341-39.394-62.327-81.719-167.526-110.37v0zM806.984 348.942c-28.911 7.488-61.611 13.349-94.003 18.232l-62.020 60.231 65.843 68.696 90.18-89.11v-58.050zM511.662 381.5c-88.781 0.488-177.357-8.367-264.021-26.372l196.437 201.53 179.029-180.043c-35.874 2.93-73.148 4.884-111.445 4.884v0zM865.181 772.514c-113.903 35.618-233.438 52.808-353.519 50.79-119.603 1.856-238.694-15.302-352.154-50.79-104.482-35.488-159.505-85.3-159.505-140.648v-441.479c0-43.301 93.013-89.533 245.897-117.858v235.716c87.108 18.818 176.367 27.804 265.762 26.73 99.021 1.823 197.803-9.116 293.615-32.557l1.707-229.855c101.001 21.455 172.1 59.548 201.694 89.175 9.011 7.911 14.473 18.721 15.326 30.278v439.851c-0.341 55.348-56.764 105.16-158.822 140.648zM612.915 603.815c-19.217 0-34.85 15.292-34.85 34.133 0 18.876 15.633 34.133 34.85 34.133s34.85-15.258 34.85-34.133c-0.205-18.705-15.735-33.792-34.85-33.792v-0.341zM612.915 727.719c-50.79 0-91.955-40.346-91.955-90.112s41.165-90.078 91.955-90.078c50.79 0 91.955 40.311 91.955 90.078s-41.165 90.112-91.955 90.112v0z" />
<glyph unicode="&#xe94c;" glyph-name="settings" d="M915.697 416.814c0.833 10.999 1.333 21.166 1.333 31.165s-0.5 20.499-1.333 31.332l75.662 62.666c13 10.833 18.499 28.166 13.833 44.167-22.832 82.164-66.165 157.992-125.162 219.156-11.833 12.166-29.665 16.333-45.831 10.166l-91.661-34.832c-16.999 11.666-34.665 22.166-53.165 31.165l-15.832 97.327c-2.667 16.666-15.166 30.165-31.499 34.498-84.498 21.832-166.491 21.832-251.488 0-16.333-4.167-28.832-17.666-31.499-34.498l-15.832-97.161c-18.499-9-36.332-19.332-53.165-31.165l-91.661 34.665c-16.166 6.166-33.999 2.167-45.831-10.166-59.163-61.164-102.327-136.992-125.328-219.156-4.5-16.166 0.833-33.499 13.833-44.167l75.662-62.832c-0.833-10.999-1.333-21.332-1.333-31.165 0-10 0.5-20.499 1.333-31.332l-75.662-62.666c-13-10.833-18.499-27.999-13.833-44.167 22.833-82.33 66.165-157.992 125.328-219.156 11.999-12.333 29.999-16.333 45.831-10.166l91.661 34.665c16.999-11.833 34.832-22.332 53.165-31.165l15.832-97.161c2.667-16.833 15.166-30.165 31.499-34.332 42.498-10.999 84.83-16.499 125.661-16.499 41.165 0 83.329 5.5 125.661 16.499 16.499 4.166 28.832 17.666 31.332 34.332l15.999 97.161c18.499 9 36.332 19.332 53.165 31.165l91.661-34.665c15.832-6 33.999-2 45.831 10.166 59.163 61.164 102.327 136.992 125.328 219.156 4.5 16.166-1 33.499-14 44.167l-75.495 62.833zM828.367 491.644c2.333-16.666 3.333-30.332 3.333-43.663 0-13.166-1-26.999-3.167-43.663-2-14.499 3.833-29.165 15.166-38.498l71.498-59.33c-17.166-49.666-43.663-95.996-77.496-135.994l-86.328 32.832c-13.999 5.166-29.665 2.833-41.498-6.5-22.999-18.166-48.164-32.832-74.663-43.663-13.666-5.666-23.499-17.999-25.832-32.665l-15.499-91.495c-52.832-10.166-102.66-10.166-155.326 0l-14.999 91.495c-2.5 14.833-12.333 27.166-25.999 32.665-26.332 10.666-51.496 25.332-74.663 43.497-11.666 9.333-27.499 11.666-41.498 6.333l-86.162-32.665c-33.998 39.998-60.332 86.162-77.496 135.994l71.498 59.163c11.333 9.5 16.999 24.166 15.166 38.665-2.333 16.166-3.333 30.499-3.333 43.663 0 13.333 1 27.166 3.333 43.497 2 14.666-3.666 29.332-15.166 38.665l-71.498 59.33c17.333 49.666 43.663 95.996 77.496 135.994l86.162-32.832c13.999-5.333 29.665-2.833 41.498 6.333 23.166 18.333 48.331 32.832 74.663 43.663 13.833 5.666 23.666 17.999 25.999 32.665l14.999 91.495c52.665 10.166 102.66 10.166 155.326 0l14.999-91.495c2.5-14.666 12.166-26.999 25.999-32.665 26.499-10.833 51.829-25.665 74.83-43.663 11.833-9.333 27.499-11.666 41.665-6.333l86.162 32.832c33.999-39.998 60.332-86.328 77.496-135.994l-71.498-59.163c-11.499-9.333-17.166-23.999-15.166-38.498v-0.001zM516.214 639.972c-105.83 0-191.992-86.162-191.992-191.992s86.162-191.992 191.992-191.992c105.83 0 191.992 86.162 191.992 191.992 0.167 105.83-86.162 191.992-191.992 191.992zM516.214 341.319c-58.831 0-106.662 47.832-106.662 106.662s47.832 106.662 106.662 106.662c58.831 0 106.662-47.832 106.662-106.662s-47.832-106.662-106.662-106.662z" />
<glyph unicode="&#xe94d;" glyph-name="plus" d="M448 512v351.521c0 35.611 28.407 64.479 64 64.479 35.346 0 64-28.731 64-64.479v-351.521h351.521c35.611 0 64.479-28.407 64.479-64 0-35.346-28.731-64-64.479-64h-351.521v-351.521c0-35.611-28.407-64.479-64-64.479-35.346 0-64 28.731-64 64.479v351.521h-351.521c-35.611 0-64.479 28.407-64.479 64 0 35.346 28.731 64 64.479 64h351.521z" />
<glyph unicode="&#xe94e;" glyph-name="minus" d="M96 512h832c35.346 0 64-28.654 64-64s-28.654-64-64-64h-832c-35.346 0-64 28.654-64 64s28.654 64 64 64z" />
<glyph unicode="&#xe94f;" glyph-name="zoom-reset" d="M940.035 500.952c10.809 0 13.246 6.325 5.986 13.584l-133.616 133.616 139.24 138.276c25.251 25.076 25.551 65.573 0.28 90.844v0c-25.096 25.096-65.799 24.939-90.844-0.28l-138.276-139.24-133.616 133.616c-7.502 7.502-13.584 5.564-13.584-5.986v-344.859c0-10.809 8.020-19.571 19.571-19.571h344.859zM94.696 384.472c-10.809 0-13.246-6.325-5.986-13.584l133.616-133.616-139.24-138.276c-25.251-25.076-25.551-65.573-0.28-90.844v0c25.096-25.096 65.799-24.939 90.844 0.28l138.276 139.24 133.616-133.616c7.502-7.502 13.584-5.564 13.584 5.986v344.859c0 10.809-8.020 19.571-19.571 19.571h-344.859z" />
<glyph unicode="&#xe950;" glyph-name="close-thick" d="M388.563 446.996l-328.008 322.62c-33.573 33.021-33.792 86.77-0.778 120.335l2.869 2.917c32.607 33.152 86.888 34.109 120.332 1.214l328.011-322.623 322.617 327.989c33.021 33.571 86.77 33.789 120.334 0.774l2.917-2.869c33.151-32.608 34.107-86.888 1.213-120.33l-322.614-327.986 327.99-322.603c33.573-33.021 33.792-86.77 0.778-120.335l-2.869-2.917c-32.607-33.152-86.888-34.109-120.332-1.214l-327.993 322.606-322.609-327.98c-33.021-33.571-86.77-33.789-120.334-0.774l-2.917 2.869c-33.151 32.608-34.107 86.888-1.213 120.33l322.606 327.977z" />
<glyph unicode="&#xe951;" glyph-name="stem-height" d="M494.222 380.113c-91.026 16.72-160 96.471-160 192.331 0 108.002 87.553 195.556 195.556 195.556s195.556-87.553 195.556-195.556c0-95.86-68.974-175.611-160-192.331v-234.336c0-19.637-15.919-35.556-35.556-35.556s-35.556 15.919-35.556 35.556v234.336z" />
<glyph unicode="&#xe952;" glyph-name="delete" d="M419.556 640v51.52c0 6.893 5.587 12.48 12.48 12.48h159.929c6.893 0 12.48-5.587 12.48-12.48v-51.52h79.964c6.893 0 12.48-5.587 12.48-12.48v-39.040c0-6.893-5.587-12.48-12.48-12.48h-344.818c-6.893 0-12.48 5.587-12.48 12.48v39.040c0 6.893 5.587 12.48 12.48 12.48h79.964zM450.371 672v-32h123.259v32h-123.259zM371.547 544h280.908c6.893 0 12.48-5.587 12.48-12.48 0-0.363-0.016-0.726-0.048-1.088l-28.63-327.040c-0.564-6.446-5.962-11.392-12.432-11.392h-223.648c-6.471 0-11.868 4.946-12.432 11.392l-28.63 327.040c-0.601 6.866 4.478 12.92 11.344 13.521 0.362 0.032 0.725 0.048 1.088 0.048z" />
<glyph unicode="&#xe953;" glyph-name="photo-add" d="M455.111 770.56h-351.004c-15.582-0.312-28.132-12.862-28.444-28.415v-512.029l170.667 207.644c13.661 17.395 34.693 28.467 58.311 28.467s44.65-11.071 58.19-28.307l0.121-0.16 192.853-227.556c3.359-4.398 8.605-7.206 14.507-7.206s11.148 2.809 14.474 7.162l0.032 0.044 75.093 88.747c13.662 16.364 34.068 26.7 56.889 26.7s43.227-10.336 56.793-26.582l0.096-0.118 56.889-68.267v160.427c29.569 3.48 56.498 10.282 81.917 20.116l-2.273-0.773v-449.422c0-13.824-11.207-25.031-25.031-25.031v0h-860.16c-13.824 0-25.031 11.207-25.031 25.031v860.16c0 13.824 11.207 25.031 25.031 25.031h449.422c-8.729-21.886-15.5-47.408-19.147-73.928l-0.195-1.735zM75.662 126.009v-85.902c0.312-15.582 12.862-28.132 28.415-28.444h702.038c15.582 0.312 28.132 12.862 28.444 28.415v86.5l-99.556 120.604c-3.225 4.621-8.517 7.607-14.507 7.607s-11.281-2.986-14.469-7.55l-0.038-0.057-75.093-88.747c-13.661-17.395-34.693-28.467-58.311-28.467s-44.65 11.071-58.19 28.307l-0.121 0.16-192.284 227.556c-3.359 4.398-8.605 7.206-14.507 7.206s-11.148-2.809-14.474-7.162l-0.032-0.044zM1008.64 777.956c8.483 0 15.36-6.877 15.36-15.36v-60.302c0-8.483-6.877-15.36-15.36-15.36v0h-166.684v-166.684c0-8.483-6.877-15.36-15.36-15.36v0h-60.302c-8.483 0-15.36 6.877-15.36 15.36v0 166.684h-159.289c-8.483 0-15.36 6.877-15.36 15.36v0 60.302c0 8.483 6.877 15.36 15.36 15.36v0h159.289v166.684c0 8.483 6.877 15.36 15.36 15.36v0h60.302c8.483 0 15.36-6.877 15.36-15.36v0-166.684z" />
<glyph unicode="&#xe954;" glyph-name="mesh" d="M937.891 616.919l-335.52-168.852 335.52-168.413v337.266zM962.103 717.202c4.72 1.989 9.907 3.089 15.351 3.089 21.85 0 39.564-17.713 39.564-39.564v-465.455c0-14.986-8.467-28.685-21.87-35.387l-465.455-232.727c-11.138-5.569-24.249-5.569-35.387 0l-465.455 232.727c-13.404 6.702-21.87 20.401-21.87 35.387v465.455c0 14.986 8.467 28.685 21.87 35.387l465.455 232.727c19.544 9.772 43.308 1.85 53.080-17.693 3.616-7.231 4.809-15.040 3.888-22.504v-397.709l410.634 206.654 0.194-0.386zM86.109 276.838l340.060 171.137-340.060 170.692v-341.829zM137.411 214.073l334.736-167.368v335.826l-334.736-168.458zM889.378 215.468l-338.104 169.71v-338.762l338.104 169.052zM136.937 681.69l335.21-168.258v335.863l-335.21-167.605z" />
<glyph unicode="&#xe955;" glyph-name="ws-feedback" d="M142.933 576h460.8c31.68 0 57.6-25.92 57.6-57.6v-345.6c0-31.68-25.92-57.6-57.6-57.6h-403.2l-115.2-115.2 0.288 518.4c0 31.68 25.632 57.6 57.312 57.6zM486.434 679.263l-47.561 176.505 70.529 18.898 47.064-176.638-70.033-18.765zM832.058 820.976l-90.9-157.443-62.977 36.36 90.9 157.443 62.977-36.36zM974.653 528.823c-4.009 1.055-176.638-47.064-176.638-47.064l-18.765 70.033 176.638 47.064 18.765-70.033z" />
<glyph unicode="&#xe956;" glyph-name="toolbar-360-view" d="M874.203 403.611c-16.739 12.038-20.55 35.367-8.512 52.107s35.367 20.55 52.107 8.512c46.323-33.314 75.13-85.211 79.536-144.229 0-123.607-146.423-226.243-352.466-253.335-20.443-2.688-39.194 11.705-41.882 32.148s11.705 39.194 32.148 41.882c165.659 21.782 287.535 99.481 287.643 176.456-2.646 34.574-20.422 66.215-48.573 86.46zM106.203 464.229c16.739 12.038 40.068 8.228 52.107-8.512s8.228-40.068-8.512-52.107c-27.868-20.042-45.905-51.554-48.464-83.611 0-101.302 183.261-188.587 410.667-188.587 20.619 0 37.333-16.715 37.333-37.333s-16.715-37.333-37.333-37.333c-273.818 0-485.334 111.94-485.224 266.102 4.327 56.535 33.395 108.275 79.427 141.38zM455.635 96.082l-109.942 85.669c-16.264 12.673-19.175 36.131-6.502 52.395s36.131 19.175 52.395 6.502l147.84-115.2c19.215-14.973 19.175-44.038-0.080-58.959l-147.84-114.56c-16.298-12.629-39.748-9.655-52.378 6.643s-9.655 39.748 6.643 52.378l109.863 85.132zM338.656 683.761c-8.807-9.629-19.458-17.263-31.233-22.505 14.151-4.151 27.379-11.382 38.81-21.387 14.083-14.557 21.566-34.262 20.681-53.816 2.564-30.148-10.224-59.56-34.343-78.481-28.309-18.988-62.104-28.078-95.611-25.862-31.563-0.945-62.943 5.107-91.89 17.722l-3.203 4.889v46.080l7.698 4.78c13.89-6.872 28.533-12.101 43.753-15.612 13.821-3.525 28.011-5.403 42.571-5.607 18.453-1.279 36.831 3.369 51.977 12.922 11.528 9.233 17.736 23.575 16.572 39.063 0.872 13.431-6.038 26.171-17.454 32.601-19.097 9.109-40.226 13.124-61.704 11.64h-29.44l-5.333 5.333v41.6l5.333 5.333h28.16c48.584 0 71.467 15.827 71.477 48.122 0.664 10.517-3.63 20.739-11.201 27.313-10.514 7.453-23.317 10.963-36.593 9.898-11.187-0.007-22.312-1.655-32.833-4.831-13.601-4.666-26.52-11.125-38.413-19.207l-7.374 1.363-24.96 35.84 1.214 7.342c30.57 22.515 67.697 34.349 105.228 33.669 27.915 1.754 55.628-5.761 79.134-21.597 19.144-14.927 29.72-38.31 28.298-62.533 0.513-19.742-6.334-38.973-19.322-54.072zM557.383 820.693c13.914 0.149 27.804-1.174 41.44-3.947l4.271-5.226v-43.52l-6.775-5.135c-12.010 3.373-24.437 5.030-37.368 4.937-27.040 2.087-53.697-7.386-72.799-25.45-15.141-19.72-24.16-43.311-26.145-67.865 5.932 6.374 12.966 11.708 20.828 15.732 14.288 7.072 30.084 10.556 45.591 10.145 27.019 1.496 53.335-8.932 72.201-28.754 17.945-21.147 27.1-48.37 25.58-75.496 1.575-30.552-9.044-60.479-29.728-83.418-21.382-21.241-50.724-32.489-80.448-30.988-22.096-0.457-43.835 5.62-62.601 17.542-18.398 12.336-32.682 29.898-41.091 50.633-8.952 25.020-12.759 51.59-11.192 78.116 0.044 127.642 53.151 192.694 158.236 192.694zM516.48 534.613c14.243-0.79 27.766 4.916 36.649 15.088 9.512 13.052 14.138 29.031 13.075 45.939 1.222 14.753-3.179 29.422-12.051 40.75-9.199 10.003-22.458 15.264-36.52 14.278-9.778 0.23-19.458-1.989-28.306-6.525-8.184-3.889-15.184-9.889-20.334-17.462-4.567-6.459-7.122-14.123-7.344-22.061-0.589-17.451 4.904-34.564 15.788-48.763 8.569-13.245 23.268-21.242 39.043-21.244zM853.731 525.061c-18.945-28.693-51.683-45.19-85.483-43.349-34.275-1.593-66.804 15.188-85.553 44.344-21.142 38.177-30.919 81.605-28.174 124.445-3.152 44.32 6.39 88.62 27.749 128.117 18.945 28.693 51.683 45.19 85.47 43.348 34.648 1.696 67.525-15.39 86.226-45.018 20.872-38.361 30.421-81.857 27.54-125.429 2.897-43.773-6.648-87.477-27.775-126.459zM716.365 651.809c-1.884-31.624 2.585-62.694 13.046-91.698 6.386-15.507 21.498-25.627 38.268-25.627s31.882 10.12 38.189 25.421c10.561 28.992 15.030 59.849 13.127 91.294 1.849 30.8-2.62 61.653-13.048 90.45-6.386 15.507-21.498 25.627-38.268 25.627s-31.882-10.12-38.179-25.394c-10.331-28.851-14.796-59.474-13.136-90.073z" />
<glyph unicode="&#xe957;" glyph-name="toolbar-edit-vr" d="M351.109 170.67h-197.524c-58.598 0.074-89.512 29.235-89.586 91.912v392.205c0.076 65.123 23.775 91.796 89.585 91.88h716.829c61.849-0.078 89.516-31.963 89.586-91.912v-392.205c-0.066-56.995-31.681-91.586-89.418-91.88l-200.365 0.003c-25.114 0-48.952 11.063-65.166 30.242l-61.637 72.91c-15.213 17.995-42.134 20.251-60.129 5.038-1.788-1.512-3.448-3.168-4.965-4.952l-62.191-73.171c-16.213-19.076-39.986-30.070-65.021-30.070zM323.322 377.391c47.321 0.2 84.987 38.644 84.987 85.397 0 34.268-20.486 65.398-52.318 78.759-32.342 13.554-69.546 5.972-93.998-18.937-23.941-24.486-30.946-60.794-17.981-92.325 13.15-32.028 44.426-53.094 79.31-52.894zM703.584 374.617c47.307 0.199 84.961 38.632 84.961 85.371 0 34.257-20.48 65.378-52.302 78.735-32.332 13.55-69.526 5.97-93.97-18.931-23.934-24.478-30.937-60.776-17.975-92.297 13.146-32.018 44.413-53.078 79.286-52.878z" />
<glyph unicode="&#xe958;" glyph-name="toolbar-hlr" d="M307.2 652.8v-409.6h409.6v409.6h-409.6zM960 652.8h-55.467v-409.6h55.467v-72.533h-85.333c-23.564 0-42.667 19.103-42.667 42.667v469.333c0 23.564 19.103 42.667 42.667 42.667h85.333v-72.533zM277.333 725.333h469.333c23.564 0 42.667-19.103 42.667-42.667v-469.333c0-23.564-19.103-42.667-42.667-42.667h-469.333c-23.564 0-42.667 19.103-42.667 42.667v469.333c0 23.564 19.103 42.667 42.667 42.667zM64 725.333h85.333c23.564 0 42.667-19.103 42.667-42.667v-469.333c0-23.564-19.103-42.667-42.667-42.667h-85.333v554.667zM64 652.8v-409.6h55.467v409.6h-55.467z" />
<glyph unicode="&#xe959;" glyph-name="toolbar-labels" d="M752.213 710.827c-15.36 21.76-40.96 35.84-69.547 35.84l-469.333-0.427c-46.933 0-85.333-37.973-85.333-84.907v-426.667c0-46.933 38.4-84.907 85.333-84.907l469.333-0.427c28.587 0 54.187 14.080 69.547 35.84l186.453 262.827-186.453 262.827z" />
<glyph unicode="&#xe95a;" glyph-name="toolbar-mattertags" d="M512 93.867c195.582 0 354.133 158.551 354.133 354.133s-158.551 354.133-354.133 354.133c-195.582 0-354.133-158.551-354.133-354.133s158.551-354.133 354.133-354.133zM512 21.333c-235.641 0-426.667 191.025-426.667 426.667s191.025 426.667 426.667 426.667c235.641 0 426.667-191.025 426.667-426.667s-191.025-426.667-426.667-426.667zM512 264.533c101.326 0 183.467 82.141 183.467 183.467s-82.141 183.467-183.467 183.467c-101.326 0-183.467-82.141-183.467-183.467s82.141-183.467 183.467-183.467zM512 192c-141.385 0-256 114.615-256 256s114.615 256 256 256c141.385 0 256-114.615 256-256s-114.615-256-256-256z" />
<glyph unicode="&#xe95b;" glyph-name="toolbar-measurements" d="M850.209 703.754l65.396 0.246c12.61 0.028 22.856-10.178 22.862-22.771l0.2-451.338c-0.009-12.537-10.113-22.687-22.653-22.755l-807.618-3.144c-12.61-0.028-22.856 10.178-22.862 22.771l-0.2 451.338c0.009 12.537 10.133 22.722 22.653 22.755l64.034 0.231c12.63 0.063 22.876-10.143 22.882-22.735l0.085-203.358c0.001-7.592 4.146-14.228 10.303-17.783 4.163-2.403 9.233-3.397 14.583-2.29 9.835 2.007 16.193 11.727 16.168 21.784l-0.082 201.99c0.009 12.537 10.113 22.687 22.653 22.755l110.595 0.413c12.63 0.063 22.876-10.143 22.882-22.735l0.050-132.001c0.001-7.592 4.146-14.228 10.303-17.783 4.163-2.403 9.233-3.397 14.583-2.29 9.835 2.007 16.193 11.727 16.168 21.784l-0.048 130.632c0.009 12.537 10.113 22.687 22.688 22.735l110.595 0.413c12.595 0.084 22.841-10.123 22.882-22.735l0.049-205.035c0.036-7.612 4.146-14.228 10.303-17.783 4.163-2.403 9.233-3.397 14.563-2.325 9.855 2.043 16.213 11.763 16.224 21.799l-0.117 203.707c0.009 12.537 10.148 22.667 22.688 22.735l110.595 0.413c12.63 0.063 22.876-10.143 22.882-22.735l0.043-137.749c0.001-7.592 4.146-14.228 10.268-17.763 4.163-2.403 9.233-3.397 14.583-2.29 9.87 1.987 16.193 11.727 16.203 21.764l-0.041 136.38c-0.012 12.502 10.113 22.687 22.653 22.755z" />
<glyph unicode="&#xe95c;" glyph-name="toolbar-more-horiz" d="M181.333 361.978c-53.019 0-96 43.135-96 96.344s42.981 96.344 96 96.344c53.019 0 96-43.135 96-96.344s-42.981-96.344-96-96.344zM522.667 361.978c-53.019 0-96 43.135-96 96.344s42.981 96.344 96 96.344c53.019 0 96-43.135 96-96.344s-42.981-96.344-96-96.344zM864 361.978c-53.019 0-96 43.135-96 96.344s42.981 96.344 96 96.344c53.019 0 96-43.135 96-96.344s-42.981-96.344-96-96.344z" />
<glyph unicode="&#xe95d;" glyph-name="toolbar-photos" d="M288.508 661.333h-224.472c-12.079 0-21.369-9.518-21.369-21.259v-554.815c0-11.877 9.567-21.259 21.369-21.259h895.929c12.079 0 21.369 9.518 21.369 21.259v554.815c0 11.877-9.567 21.259-21.369 21.259h-185.361l-59.349 151.070c-4.314 10.98-17.085 19.596-28.664 19.596h-310.070c-11.55 0-24.412-8.774-28.664-19.596l-59.349-151.070zM512 206.933c97.791 0 177.067 79.275 177.067 177.067s-79.275 177.067-177.067 177.067c-97.791 0-177.067-79.275-177.067-177.067s79.275-177.067 177.067-177.067zM512 149.333c-129.603 0-234.667 105.064-234.667 234.667s105.064 234.667 234.667 234.667c129.603 0 234.667-105.064 234.667-234.667s-105.064-234.667-234.667-234.667zM853.333 533.333c-23.564 0-42.667 19.103-42.667 42.667s19.103 42.667 42.667 42.667c23.564 0 42.667-19.103 42.667-42.667s-19.103-42.667-42.667-42.667zM106.667 767.8c0 11.892 9.205 21.533 21.137 21.533h85.727c11.673 0 21.137-9.132 21.137-21.533v-63.8h-128v63.8z" />
<glyph unicode="&#xe95e;" glyph-name="toolbar-scan-mgmt" d="M448 21.333c-247.424 0-448 96.125-448 214.701s200.576 214.701 448 214.701c247.424 0 448-96.125 448-214.701s-200.576-214.701-448-214.701zM448 138.438c192.441 0 348.444 57.895 348.444 129.311s-156.004 129.311-348.444 129.311c-192.441 0-348.444-57.895-348.444-129.311s156.004-129.311 348.444-129.311zM789.333 570.666c129.603 0 234.667 36.047 234.667 80.513s-105.064 80.513-234.667 80.513c-129.603 0-234.667-36.047-234.667-80.513s105.064-80.513 234.667-80.513zM789.333 614.483c-97.202 0-176 21.71-176 48.492s78.798 48.492 176 48.492c97.202 0 176-21.71 176-48.492s-78.798-48.492-176-48.492zM448 819.2c-58.91 0-106.667 12.417-106.667 27.733s47.756 27.733 106.667 27.733c58.91 0 106.667-12.417 106.667-27.733s-47.756-27.733-106.667-27.733z" />
<glyph unicode="&#xe95f;" glyph-name="toolbar-start-location" d="M369.778 400.593v-49.002c-112.116-18.867-189.63-59.348-189.63-106.243 0-64.924 148.575-117.556 331.852-117.556s331.852 52.631 331.852 117.556c0 46.895-77.514 87.376-189.63 106.243v49.002c165.716-26.794 284.444-99.093 284.444-184.076 0-107.796-191.025-195.183-426.667-195.183s-426.667 87.386-426.667 195.183c0 84.984 118.728 157.282 284.444 184.076zM910.82 874.667c3.057 0 6.014-1.094 8.334-3.085 5.365-4.603 5.983-12.684 1.38-18.049l-120.499-140.455 120.499-140.453c1.991-2.321 3.085-5.277 3.085-8.335 0-7.069-5.731-12.8-12.8-12.8h-367.394v-300.177c0-7.069-5.731-12.8-12.8-12.8h-35.893c-7.069 0-12.8 5.731-12.8 12.8v610.554c0 7.069 5.731 12.8 12.8 12.8h416.087z" />
<glyph unicode="&#xe960;" glyph-name="toolbar-ws2" d="M674.070 489.435h-191.937c-23.564 0-42.667-19.103-42.667-42.667v-192.639l-159.263-159.739h-182.071v182.071l423.567 422.303 180.806-180.806-28.437-28.522zM842.853 657.038l-88.507-88.507-182.071 182.071 88.507 88.507c18.966 18.966 49.311 18.966 68.277 0l113.794-113.794c18.966-18.966 18.966-49.311 0-68.277zM546.512 416.97h348.914c23.564 0 42.667-19.103 42.667-42.667v-267.636c0-23.564-19.103-42.667-42.667-42.667h-348.914c-23.564 0-42.667 19.103-42.667 42.667v267.636c0 23.564 19.103 42.667 42.667 42.667zM851.966 331.636h-19.702c-9.851 0-15.52-4.164-18.327-13.843l-25.371-116.257c-2.807-12.437-2.807-22.171-2.807-22.171s0 9.679-4.238 22.171l-28.177 116.257c-1.431 9.679-8.475 13.843-18.327 13.843h-12.658c-9.851 0-15.52-4.164-18.327-13.843l-29.609-116.257c-2.807-12.437-4.238-22.171-4.238-22.171s0 9.679-2.807 22.171l-23.939 116.257c-1.431 9.679-8.475 13.843-18.327 13.843h-21.133c-11.282 0-16.895-6.921-14.089-18.007l43.697-175.789c2.807-9.679 8.475-13.843 18.327-13.843h29.609c9.851 0 15.52 4.164 18.327 13.843l22.564 91.384c2.807 13.843 4.238 24.928 4.238 24.928s1.431-11.085 4.238-24.928l22.564-91.384c2.807-9.679 8.475-13.843 18.327-13.843h28.177c9.851 0 15.52 4.164 18.327 13.843l45.072 175.789c5.558 11.085-0.11 18.007-11.392 18.007h-0.002z" />
<glyph unicode="&#xe961;" glyph-name="rotate-right" horiz-adv-x="945" d="M-24.526 587.757c17.11-33.609 57.514-134.108 382.658-205.84 164.435-36.308 326.816-54.858 499.872-59.583l58.098-1.069v-336.407c-234.113 3.137-461.242 40.36-676.041 112.331-104.493 35.004-249.312 128.181-260.412 247.283-0.8 8.531-15.745 109.157-4.175 243.283zM501.597 990.129l334.349-179.588-334.349-193.613-0.053 100.956-22.382-3.592c-177.463-29.713-272.751-74.381-335.497-120.298-9.404-6.862-21.266-15.374-27.918-24.326-48.773 34.581-71.014 69.769-70.175 104.938 1.034 43.003 21.909 62.174 62.040 92.591 118.165 70 240.131 103.085 393.892 123.181l0.093 99.751z" />
<glyph unicode="&#xe962;" glyph-name="rotate-left" horiz-adv-x="945" d="M886.409 579.701c-16.124-31.672-54.199-126.378-360.601-193.975-154.957-34.215-307.978-51.696-471.059-56.149l-54.749-1.007v-317.016c220.619 2.956 434.656 38.034 637.073 105.856 98.47 32.986 234.941 120.793 245.402 233.029 0.754 8.039 14.837 102.865 3.934 229.26zM390.612 958.88l-315.077-169.236 315.077-182.453 0.050 95.137 21.092-3.385c167.234-28 257.029-70.094 316.159-113.364 8.862-6.466 20.040-14.488 26.309-22.924 45.962 32.588 66.921 65.747 66.13 98.889-0.974 40.524-20.646 58.59-58.464 87.254-111.354 65.965-226.29 97.143-371.188 116.081l-0.088 94.001z" />
<glyph unicode="&#xe963;" glyph-name="keyboard" horiz-adv-x="1609" d="M146.26 959.964h1316.479c80.785 0 146.276-65.489 146.276-146.276v-731.378c0-80.785-65.489-146.276-146.276-146.276h-1316.479c-80.785 0-146.276 65.489-146.276 146.276v731.378c0 80.785 65.489 146.276 146.276 146.276zM146.26 850.258c-20.197 0-36.568-16.373-36.568-36.568v-731.378c0-20.197 16.373-36.568 36.568-36.568h1316.479c20.197 0 36.568 16.373 36.568 36.568v731.378c0 20.197-16.373 36.568-36.568 36.568h-1316.479zM292.535 740.551h438.826c40.393 0 73.138-32.745 73.138-73.138s-32.745-73.138-73.138-73.138h-438.826c-40.393 0-73.138 32.745-73.138 73.138s32.745 73.138 73.138 73.138zM877.637 301.724h438.826c40.393 0 73.138-32.745 73.138-73.138s-32.745-73.138-73.138-73.138h-438.826c-40.393 0-73.138 32.745-73.138 73.138s32.745 73.138 73.138 73.138zM1097.051 740.551h219.414c40.393 0 73.138-32.745 73.138-73.138s-32.745-73.138-73.138-73.138h-219.414c-40.393 0-73.138 32.745-73.138 73.138s32.745 73.138 73.138 73.138zM658.224 521.138h219.414c40.393 0 73.138-32.745 73.138-73.138s-32.745-73.138-73.138-73.138h-219.414c-40.393 0-73.138 32.745-73.138 73.138s32.745 73.138 73.138 73.138zM292.535 301.724h219.414c40.393 0 73.138-32.745 73.138-73.138s-32.745-73.138-73.138-73.138h-219.414c-40.393 0-73.138 32.745-73.138 73.138s32.745 73.138 73.138 73.138zM292.535 521.138h73.138c40.393 0 73.138-32.745 73.138-73.138s-32.745-73.138-73.138-73.138h-73.138c-40.393 0-73.138 32.745-73.138 73.138s32.745 73.138 73.138 73.138zM1243.326 521.138h73.138c40.393 0 73.138-32.745 73.138-73.138s-32.745-73.138-73.138-73.138h-73.138c-40.393 0-73.138 32.745-73.138 73.138s32.745 73.138 73.138 73.138z" />
<glyph unicode="&#xe964;" glyph-name="tape-measure" d="M32.299 330.337l597.364 597.364c34.991 34.991 91.723 34.991 126.714 0l235.325-235.325c34.991-34.991 34.991-91.723 0-126.714l-597.364-597.364c-34.991-34.991-91.723-34.991-126.714 0l-235.325 235.325c-34.991 34.991-34.991 91.723 0 126.714zM86.605 276.032c-4.999-4.999-4.999-13.103 0-18.102l235.325-235.325c4.999-4.999 13.103-4.999 18.102 0l597.364 597.364c4.999 4.999 4.999 13.103 0 18.102l-235.325 235.325c-4.999 4.999-13.103 4.999-18.102 0l-597.364-597.364zM546.511 359.183c-14.996 14.996-14.996 39.31 0 54.306s39.31 14.996 54.306 0l81.038-81.038-54.306-54.306-81.038 81.038zM751.311 563.983c-14.996 14.996-14.996 39.31 0 54.306s39.31 14.996 54.306 0l81.038-81.038-54.306-54.306-81.038 81.038zM341.711 154.383c-14.996 14.996-14.996 39.31 0 54.306s39.31 14.996 54.306 0l81.038-81.038-54.306-54.306-81.038 81.038zM574.447 536.047c-14.996 14.996-14.996 39.31 0 54.306s39.31 14.996 54.306 0l155.501-155.501-54.306-54.306-155.501 155.501zM369.647 331.247c-14.996 14.996-14.996 39.31 0 54.306s39.31 14.996 54.306 0l155.501-155.501-54.306-54.306-155.501 155.501z" />
<glyph unicode="&#xe965;" glyph-name="back" d="M474.494-3.666l73.483 73.483-352.203 352.203h846.595v103.922h-846.595l352.203 352.203-73.483 73.483-440.906-440.906c-20.292-20.292-20.292-53.192 0-73.483l440.906-440.906z" />
<glyph unicode="&#xe966;" glyph-name="list" d="M281.6 831.999h716.799v-102.4h-716.799v102.4zM-25.601 831.999h102.4v-102.4h-102.4v102.4zM-25.601 217.6h102.4v-102.4h-102.4v102.4zM281.6 217.6h716.799v-102.4h-716.799v102.4zM-25.601 524.801h102.4v-102.4h-102.4v102.4zM281.6 524.801h716.799v-102.4h-716.799v102.4z" />
<glyph unicode="&#xe967;" glyph-name="add" d="M494.933 960c-28.276 0-51.2-22.923-51.2-51.2v-392.533h-392.533c-28.277 0-51.2-22.924-51.2-51.2v-34.133c0-28.276 22.923-51.2 51.2-51.2h392.533v-392.533c0-28.276 22.924-51.2 51.2-51.2h34.133c28.276 0 51.2 22.924 51.2 51.2v392.533h392.533c28.276 0 51.2 22.924 51.2 51.2v34.133c0 28.276-22.924 51.2-51.2 51.2h-392.533v392.533c0 28.277-22.924 51.2-51.2 51.2h-34.133z" />
<glyph unicode="&#xe968;" glyph-name="checkmark" d="M343.325 105.315c-6.228 2.505-12.065 6.279-17.112 11.327l-312.502 312.501c-20.047 20.047-20.047 52.551 0 72.594l18.173 18.175c20.047 20.047 52.549 20.047 72.595 0l261.453-261.453 550.94 550.942c20.047 20.047 52.551 20.047 72.594 0l18.175-18.173c20.047-20.047 20.047-52.549 0-72.595l-604.155-604.155c-16.286-16.286-40.792-19.342-60.161-9.165z" />
<glyph unicode="&#xe969;" glyph-name="measurement-mode-close" d="M19.733 908.509c-26.31-26.31-26.31-68.968 0-95.278l365.232-365.231-365.232-365.229c-26.31-26.31-26.31-68.97 0-95.277l31.759-31.763c26.31-26.306 68.968-26.306 95.278 0l365.231 365.233 365.229-365.233c26.31-26.306 68.97-26.306 95.281 0l31.759 31.763c26.306 26.306 26.306 68.966 0 95.277l-365.233 365.229 365.233 365.231c26.306 26.31 26.306 68.968 0 95.278l-31.759 31.759c-26.31 26.31-68.97 26.31-95.281 0l-365.229-365.232-365.231 365.232c-26.31 26.31-68.968 26.31-95.278 0l-31.759-31.759z" />
<glyph unicode="&#xe96a;" glyph-name="escape-key" d="M204.8 960c-113.108 0-204.8-91.692-204.8-204.8v-614.4c0-113.107 91.692-204.8 204.8-204.8h614.4c113.107 0 204.8 91.693 204.8 204.8v614.4c0 113.108-91.693 204.8-204.8 204.8h-614.4zM164.2 97.839c-16.6 0-30.033 4.934-40.3 14.801-10.267 9.933-15.4 22.833-15.4 38.699v2.802c0 11.065 2.033 20.832 6.1 29.299 4.133 8.466 10.133 15.002 18 19.601 7.867 4.665 17.2 7 28 7 15.2 0 27.2-4.735 36-14.201 8.8-9.4 13.199-22.534 13.199-39.399v-13.101h-66.999c1.2-6.066 3.833-10.832 7.9-14.299s9.333-5.2 15.8-5.2c10.667 0 19 3.734 25 11.201l15.399-18.201c-4.199-5.8-10.166-10.435-17.899-13.9-7.667-3.4-15.933-5.102-24.8-5.102zM160.4 184.039c-9.867 0-15.733-6.533-17.6-19.599h34v2.599c0.133 5.401-1.233 9.568-4.1 12.501-2.867 3-6.967 4.499-12.3 4.499zM283.513 130.241c0 2.865-1.499 5.167-4.499 6.9s-8.7 3.533-17.101 5.401c-8.399 1.866-15.333 4.299-20.799 7.299-5.466 3.066-9.634 6.767-12.499 11.1-2.867 4.334-4.301 9.3-4.301 14.899 0 9.935 4.1 18.1 12.3 24.5 8.2 6.468 18.934 9.701 32.201 9.701 14.266 0 25.733-3.234 34.398-9.701 8.667-6.466 13.001-14.967 13.001-25.5h-33.8c0 8.667-4.567 13.001-13.699 13.001-3.535 0-6.5-1.001-8.901-3-2.4-1.933-3.6-4.366-3.6-7.301 0-2.998 1.466-5.433 4.401-7.299 2.933-1.866 7.6-3.4 14-4.6 6.466-1.2 12.132-2.634 16.998-4.301 16.267-5.599 24.4-15.632 24.4-30.099 0-9.867-4.399-17.9-13.199-24.101-8.733-6.199-20.066-9.3-33.999-9.3-9.267 0-17.535 1.667-24.801 5.001-7.266 3.332-12.933 7.866-17 13.599-4.065 5.734-6.099 11.768-6.099 18.1h31.5c0.133-4.999 1.8-8.665 4.999-11 3.201-2.265 7.301-3.4 12.3-3.4 4.6 0 8.032 0.934 10.299 2.8 2.335 1.868 3.5 4.301 3.5 7.301zM392.026 127.64c-2.599-2.533-6.267-3.799-11-3.799-5.667 0-9.8 2.099-12.401 6.3-2.599 4.2-3.899 11.733-3.899 22.6 0 6.199 0.233 11.067 0.7 14.6 1.466 11.133 6.566 16.699 15.301 16.699 4.6 0 8.266-1.499 11-4.499 2.732-3 4.1-7.299 4.1-12.9h31.599c0 13.335-4.133 23.9-12.399 31.701-8.268 7.799-19.433 11.7-33.501 11.7-10.4 0-19.399-2.267-26.999-6.801-7.6-4.467-13.435-10.899-17.5-19.3-4-8.333-6.001-17.965-6.001-28.899v-1.399c0-17.467 4.534-31.134 13.601-41.001s21.465-14.801 37.2-14.801c13.4 0 24.332 3.801 32.799 11.401 8.534 7.6 12.8 17.332 12.8 29.2h-31.599c0.066-4.6-1.2-8.2-3.801-10.801z" />
<glyph unicode="&#xe96b;" glyph-name="draw-lines" horiz-adv-x="1475" d="M1464.846 848.772c0 61.429-49.797 111.226-111.227 111.226-61.428 0-111.225-49.798-111.225-111.226s49.797-111.226 111.225-111.226c61.43 0 111.227 49.797 111.227 111.226zM199.697 393.933c-20.322-26.622-52.388-43.801-88.466-43.801-61.429 0-111.226 49.799-111.226 111.227s49.798 111.227 111.226 111.227c61.429 0 111.226-49.799 111.226-111.227 0-12.073-1.923-23.697-5.48-34.583l103.92-60.697h395.907c11.311 0 20.48-9.169 20.48-20.48v-184.319c0-11.311-9.169-20.48-20.48-20.48h-10.201l49.056-28.652c20.193 28.043 53.125 46.301 90.321 46.301 61.43 0 111.227-49.797 111.227-111.225 0-61.43-49.797-111.227-111.227-111.227-61.428 0-111.225 49.797-111.225 111.227 0 10.957 1.583 21.545 4.536 31.545l-106.201 62.030h-407.804c-11.311 0-20.48 9.169-20.48 20.48v184.319c0 11.311 9.169 20.48 20.48 20.48h22.1l-47.688 27.853zM944.895 182.523c9.37-5.917 21.758-3.119 27.675 6.25l0.733 1.159c5.917 9.37 3.119 21.76-6.248 27.675-9.368 5.917-21.758 3.119-27.675-6.248l-0.733-1.161c-5.917-9.368-3.119-21.758 6.248-27.675zM1018.961 299.793c9.368-5.917 21.758-3.119 27.675 6.248l1.466 2.322c5.917 9.368 3.119 21.758-6.248 27.675s-21.758 3.119-27.675-6.248l-1.466-2.322c-5.917-9.368-3.119-21.758 6.248-27.675zM1093.76 418.222c9.368-5.915 21.758-3.117 27.675 6.25l1.466 2.322c5.917 9.368 3.119 21.758-6.25 27.675-9.368 5.915-21.758 3.117-27.673-6.25l-1.468-2.322c-5.917-9.368-3.117-21.758 6.25-27.675zM1168.556 536.654c9.368-5.917 21.758-3.119 27.675 6.248l1.466 2.322c5.917 9.368 3.119 21.758-6.248 27.675s-21.758 3.119-27.675-6.248l-1.466-2.322c-5.917-9.368-3.119-21.758 6.248-27.675zM1243.352 655.085c9.368-5.917 21.758-3.119 27.675 6.248l0.733 1.161c5.917 9.368 3.119 21.758-6.248 27.675s-21.758 3.119-27.675-6.25l-0.733-1.159c-5.917-9.37-3.119-21.76 6.248-27.675zM350.457 202.241h23.658v101.921h-2.169l-44.73-15.471v-17.92l23.241 6.789v-75.319zM435.281 221.771c-2.474 2.241-5.577 3.361-9.31 3.361-3.781 0-6.908-1.12-9.38-3.361-2.427-2.241-3.641-5.063-3.641-8.471 0-3.406 1.214-6.23 3.641-8.468 2.472-2.241 5.599-3.361 9.38-3.361 3.734 0 6.836 1.096 9.31 3.289 2.472 2.241 3.709 5.087 3.709 8.54 0 3.455-1.237 6.277-3.709 8.471zM461.934 252.081l18.76-4.409c2.707 3.545 6.814 5.319 12.321 5.319 9.708 0 14.559-5.435 14.559-16.31 0-11.76-3.965-17.639-11.899-17.639-3.5 0-6.324 1.098-8.471 3.291s-3.336 5.155-3.57 8.888h-23.661c-0.047-5.786 1.518-10.99 4.69-15.61 3.174-4.573 7.561-8.19 13.16-10.85 5.599-2.613 11.596-3.92 17.99-3.92 7.186 0 13.416 1.423 18.69 4.27s9.357 6.908 12.251 12.182c2.939 5.319 4.409 11.246 4.409 17.779 0 10.828-2.73 19.227-8.19 25.201-5.413 6.019-13.183 9.030-23.31 9.030-2.613 0-5.296-0.373-8.051-1.12-2.705-0.745-4.899-1.61-6.578-2.589l2.308 20.23h40.391v18.34h-59.57l-6.23-52.081zM578.328 202.241h23.661v101.921h-2.171l-44.728-15.471v-17.92l23.239 6.789v-75.319z" />
</font>
</defs>
</svg>
